<svg xmlns="http://www.w3.org/2000/svg" preserveAspectRatio="none" viewBox="0 0 1440 112.27"><defs><style>.cls-1{fill:#002933;}.cls-2{fill:#0090b2;}.cls-3{fill:#007c99;}.cls-4{fill:#006d7f;}.cls-5{fill:#005366;}.cls-6{fill:#003e4c;}.cls-7,.cls-8,.cls-9{fill:#fff;}.cls-7{opacity:0.37;}.cls-8{opacity:0.22;}</style></defs><title>Artboard 69</title><g id="Layer_1" data-name="Layer 1"><rect class="cls-1" width="1440" height="112.27"/><rect class="cls-2" width="1440" height="19.09"/><rect class="cls-3" y="19" width="1440" height="19.09"/><rect class="cls-4" y="38.09" width="1440" height="19.09"/><rect class="cls-5" y="57.18" width="1440" height="19.09"/><rect class="cls-6" y="76.27" width="1440" height="19.09"/><circle class="cls-7" cx="66.8" cy="23.82" r="21.73"/><circle class="cls-8" cx="175.57" cy="47.09" r="27"/><circle class="cls-8" cx="144.07" cy="27.54" r="18"/><path class="cls-8" d="M99.37,57.18a23.7,23.7,0,1,0,23.7,23.7A23.7,23.7,0,0,0,99.37,57.18Zm0,39.63A15.93,15.93,0,1,1,115.3,80.88,15.93,15.93,0,0,1,99.37,96.81Z"/><circle class="cls-8" cx="330.06" cy="56.09" r="18"/><circle class="cls-8" cx="272.98" cy="47.13" r="19.59"/><circle class="cls-8" cx="29.35" cy="45.82" r="30.73"/><circle class="cls-8" cx="391.56" cy="56.09" r="9"/><circle class="cls-8" cx="453.06" cy="38.09" r="9"/><circle class="cls-8" cx="475.56" cy="66.73" r="4.5"/><circle class="cls-8" cx="919.8" cy="65.09" r="9"/><circle class="cls-8" cx="950.99" cy="38.14" r="9"/><circle class="cls-8" cx="867.79" cy="18.6" r="5.49"/><circle class="cls-8" cx="238.57" cy="5.59" r="18"/><circle class="cls-7" cx="1369.87" cy="23.82" r="21.73"/><path class="cls-8" d="M1261.11,20.09a27,27,0,1,0,27,27A27,27,0,0,0,1261.11,20.09Zm0,40.5a13.5,13.5,0,1,1,13.5-13.5A13.5,13.5,0,0,1,1261.11,60.59Z"/><circle class="cls-8" cx="1292.6" cy="27.54" r="18"/><circle class="cls-8" cx="1337.31" cy="80.88" r="23.7"/><circle class="cls-8" cx="1106.61" cy="56.09" r="18"/><circle class="cls-8" cx="1163.7" cy="47.13" r="19.59"/><circle class="cls-8" cx="1407.32" cy="45.82" r="30.73"/><circle class="cls-8" cx="1045.12" cy="56.09" r="9"/><circle class="cls-8" cx="1198.11" cy="5.59" r="18"/><path class="cls-9" d="M662.48,36.12a3.25,3.25,0,0,1-1.89-1.2,3.43,3.43,0,0,1-.56-2v-1.4a1.83,1.83,0,0,0-.35-1.19,1.32,1.32,0,0,0-1.08-.43v-1a1.33,1.33,0,0,0,1.08-.42,1.81,1.81,0,0,0,.35-1.19V25.9a3.42,3.42,0,0,1,.56-2,3.27,3.27,0,0,1,1.89-1.19l.27.8a1.72,1.72,0,0,0-1.07.86,3.33,3.33,0,0,0-.31,1.52v1.41a2.66,2.66,0,0,1-.29,1.26,2,2,0,0,1-.87.85,2.07,2.07,0,0,1,.87.87,2.65,2.65,0,0,1,.29,1.25v1.4a3.29,3.29,0,0,0,.31,1.51,1.75,1.75,0,0,0,1.07.86Z"/><path class="cls-9" d="M669.36,23.68l3.17,8.09h0l3.17-8.09h1.72v10h-1.35V29.7l.14-4h0l-3.23,8h-.9l-3.21-8h0l.13,4v3.94h-1.35v-10Z"/><path class="cls-9" d="M685.84,29h-4.56v3.55h5.26v1.06h-6.6v-10h6.53v1.06h-5.18V28h4.56Z"/><path class="cls-9" d="M689.46,32.58h4.71v1.06h-6.06v-10h1.35Z"/><path class="cls-9" d="M697,32.58h4.71v1.06h-6.06v-10H697Z"/><path class="cls-9" d="M710.6,29.55a4.25,4.25,0,0,1-1.13,3,3.85,3.85,0,0,1-2.94,1.2,3.65,3.65,0,0,1-2.83-1.2,4.34,4.34,0,0,1-1.09-3V27.78a4.35,4.35,0,0,1,1.09-3,3.64,3.64,0,0,1,2.83-1.21,3.85,3.85,0,0,1,2.94,1.21,4.26,4.26,0,0,1,1.13,3Zm-1.35-1.78a3.36,3.36,0,0,0-.74-2.24,2.46,2.46,0,0,0-2-.87,2.28,2.28,0,0,0-1.88.88,3.47,3.47,0,0,0-.7,2.24v1.78a3.5,3.5,0,0,0,.7,2.26,2.28,2.28,0,0,0,1.88.88,2.46,2.46,0,0,0,2-.87,3.39,3.39,0,0,0,.74-2.26Z"/><path class="cls-9" d="M714.61,30.19l.18,1.24h0l.27-1.25,1.83-6.51h1.19L720,30.19l.27,1.28h0l.2-1.28,1.48-6.51h1.35l-2.4,10h-1.2l-2-6.9-.18-.9h0l-.17.9-2,6.9h-1.2l-2.39-10h1.34Z"/><path class="cls-9" d="M729.8,29.64v4h-1.35v-10h3.81a3.5,3.5,0,0,1,2.47.82,3.1,3.1,0,0,1,0,4.33,3.52,3.52,0,0,1-2.47.81Zm0-1.06h2.46a2,2,0,0,0,1.51-3.29,1.93,1.93,0,0,0-1.51-.55H729.8Z"/><path class="cls-9" d="M738.85,33.64h-1.35v-10h1.35Z"/><path class="cls-9" d="M744.71,27.57,747,23.68h1.63l-3.16,4.94,3.23,5h-1.61l-2.39-4-2.39,4h-1.63l3.23-5-3.16-4.94h1.61Z"/><path class="cls-9" d="M756.26,29H751.7v3.55H757v1.06h-6.6v-10h6.53v1.06H751.7V28h4.56Z"/><path class="cls-9" d="M759.88,32.58h4.71v1.06h-6.06v-10h1.35Z"/><path class="cls-9" d="M771.52,31.13A1.47,1.47,0,0,0,771,30a4.33,4.33,0,0,0-1.82-.77,6,6,0,0,1-2.46-1.11,2.3,2.3,0,0,1-.88-1.84,2.42,2.42,0,0,1,1-1.95,3.78,3.78,0,0,1,2.47-.78,3.67,3.67,0,0,1,2.6.9,2.64,2.64,0,0,1,.93,2.08v0H771.5a1.84,1.84,0,0,0-.58-1.42,2.83,2.83,0,0,0-3.2-.08,1.48,1.48,0,0,0-.54,1.19,1.31,1.31,0,0,0,.58,1.08,5.53,5.53,0,0,0,1.89.76A5.39,5.39,0,0,1,772,29.23a2.46,2.46,0,0,1,.82,1.88,2.3,2.3,0,0,1-1,1.93,4.2,4.2,0,0,1-2.57.73,4.45,4.45,0,0,1-2.63-.81,2.44,2.44,0,0,1-1.11-2.16v0h1.29a1.67,1.67,0,0,0,.7,1.46,2.94,2.94,0,0,0,1.74.5,2.71,2.71,0,0,0,1.61-.43A1.36,1.36,0,0,0,771.52,31.13Z"/><path class="cls-9" d="M777.22,35.32a1.77,1.77,0,0,0,1.07-.86,3.24,3.24,0,0,0,.32-1.51v-1.4a2.56,2.56,0,0,1,.31-1.28,2,2,0,0,1,1-.84,1.94,1.94,0,0,1-1-.83,2.59,2.59,0,0,1-.31-1.29V25.9a3.28,3.28,0,0,0-.32-1.52,1.74,1.74,0,0,0-1.07-.86l.28-.8a3.29,3.29,0,0,1,1.89,1.19,3.42,3.42,0,0,1,.56,2v1.41a1.84,1.84,0,0,0,.34,1.19,1.33,1.33,0,0,0,1.08.42v1a1.31,1.31,0,0,0-1.08.43,1.86,1.86,0,0,0-.34,1.19v1.4a3.42,3.42,0,0,1-.56,2,3.27,3.27,0,0,1-1.89,1.2Z"/></g></svg>