<?xml version="1.0" encoding="utf-8"?>
<!-- Generator: Adobe Illustrator 16.0.0, SVG Export Plug-In . SVG Version: 6.00 Build 0)  -->
<!DOCTYPE svg PUBLIC "-//W3C//DTD SVG 1.1//EN" "http://www.w3.org/Graphics/SVG/1.1/DTD/svg11.dtd">
<svg version="1.1" preserveAspectRation="none" id="Layer_1" xmlns="http://www.w3.org/2000/svg" xmlns:xlink="http://www.w3.org/1999/xlink" x="0px" y="0px"
	 width="362.842px" height="72.18px" viewBox="0 0 362.842 72.18" enable-background="new 0 0 362.842 72.18" xml:space="preserve">
<g>
	<path fill="#FFFFFF" d="M26.316,32.334c0.053-3.34,3.433-7.116,7.195-7.144h4.559c3.729-0.042,6.829,2.897,6.771,6.723
		l0.001,16.944h1.7l0.003-16.944c0-4.646-3.798-8.415-8.476-8.415L33.512,23.5c-3.75,0-6.929,2.416-8.046,5.765l-0.005,0.002
		c-1.115-3.351-4.296-5.767-8.048-5.769h-4.555c-4.683,0-8.479,3.77-8.478,8.415v16.944h1.704v-16.94
		c-0.059-3.829,3.043-6.769,6.772-6.723h4.556c3.765,0.023,7.146,3.802,7.196,7.14l0.002,6.598h1.7L26.316,32.334z"/>
	<path fill="#FFFFFF" d="M174.312,40.025c0.051,3.334,3.434,7.115,7.196,7.141h2.441c3.73,0.041,6.831-2.896,6.774-6.722V23.498
		h1.701l0.002,16.945c-0.002,4.648-3.797,8.414-8.478,8.414l-2.443,0.002c-3.75-0.002-6.929-2.416-8.046-5.77h-0.004
		c-1.116,3.354-4.3,5.77-8.048,5.77l-2.865-0.002c-4.683,0-8.477-3.766-8.477-8.413V23.498h1.704l-0.002,16.946
		c-0.056,3.825,3.044,6.763,6.774,6.722l2.864,0.001c3.765-0.026,7.146-3.808,7.199-7.142l-0.003-6.601l1.705,0.001L174.312,40.025z
		"/>
	<g>
		<path fill="#FFFFFF" d="M275.597,24.689l6.946,0.002v-1.705h-6.946c-3.336,0-6.208,1.96-7.569,4.795
			c-1.361-2.835-4.233-4.795-7.569-4.795h-6.946v1.705l6.946-0.002c3.825-0.057,6.763,3.043,6.722,6.773v8.836
			c0.041,3.73-2.896,6.83-6.722,6.773l-6.946-0.002v1.705h6.946c3.336,0,6.208-1.96,7.569-4.795
			c1.361,2.835,4.233,4.795,7.569,4.795h6.946V47.07l-6.946,0.002c-3.825,0.057-6.763-3.043-6.722-6.773v-8.836
			C268.834,27.732,271.771,24.633,275.597,24.689z"/>
	</g>
	<path fill="#FFFFFF" d="M96.607,47.167h-4.556c-3.73,0.04-6.832-2.896-6.772-6.723V7.132h-1.705l0.002,33.312
		c0,4.646,3.795,8.411,8.476,8.411l4.556,0.002V47.167z"/>
	<path fill="#FFFFFF" d="M117.009,47.167h-4.557c-3.729,0.042-6.831-2.897-6.773-6.723V7.132l-1.704,0.002v33.311
		c0,4.646,3.794,8.413,8.478,8.415l4.559-0.002L117.009,47.167z"/>
	<rect x="244.441" y="27.485" fill="#FFFFFF" width="1.704" height="21.291"/>
	<rect x="244.442" y="23.111" fill="#FFFFFF" width="1.704" height="1.75"/>
	<g>
		<path fill="#FFFFFF" d="M138.16,23.498h-5.308c-4.68,0-8.477,3.767-8.477,8.419v6.567v1.96c0,4.647,3.797,8.413,8.477,8.413h5.307
			c4.682,0.002,8.478-3.766,8.478-8.413l-0.002-1.956l0.002-6.575C146.635,27.268,142.843,23.498,138.16,23.498z M144.934,38.486
			v1.957c0.057,3.826-3.044,6.764-6.773,6.724l-5.308-0.001c-3.729,0.043-6.829-2.896-6.773-6.723v-1.955v-6.575
			c-0.058-3.825,3.044-6.765,6.773-6.719h5.308c3.729-0.046,6.828,2.894,6.773,6.719V38.486z"/>
	</g>
	<g>
		<path fill="#FFFFFF" d="M67.601,40.488c4.685-0.002,8.479-3.769,8.479-8.416l0.001-0.253c-0.001-4.646-3.795-8.413-8.479-8.413
			h-3.662h-1.548c-4.539,0-8.235,3.545-8.455,7.993L53.912,31.4v0.421v0.251v8.372c0.001,4.647,3.796,8.413,8.477,8.413l1.55,0.002
			l12.141-0.002v-1.69l-12.14-0.001l-1.549,0.001c-3.842,0.056-6.791-2.997-6.772-6.679l8.32-0.002L67.601,40.488z M62.389,25.096
			h1.55h3.662c3.856-0.059,6.814,3.021,6.774,6.724v0.253c0.042,3.703-2.918,6.783-6.774,6.725h-3.662h-8.323v-6.725l-0.002-0.251
			C55.574,28.12,58.535,25.037,62.389,25.096z"/>
	</g>
	<path fill="#FFFFFF" d="M332.477,47.167h-4.556c-3.73,0.04-6.832-2.896-6.772-6.723V7.132h-1.705l0.002,33.312
		c0,4.646,3.795,8.411,8.476,8.411l4.556,0.002V47.167z"/>
	<g>
		<path fill="#FFFFFF" d="M303.598,40.488c4.685-0.002,8.479-3.769,8.479-8.416l0.001-0.253c-0.001-4.646-3.795-8.413-8.479-8.413
			h-3.662h-1.548c-4.539,0-8.235,3.545-8.455,7.993l-0.023,0.001v0.421v0.251v8.372c0.001,4.647,3.796,8.413,8.477,8.413l1.55,0.002
			l12.141-0.002v-1.69l-12.14-0.001l-1.549,0.001c-3.842,0.056-6.791-2.997-6.772-6.679l8.32-0.002L303.598,40.488z M298.386,25.096
			h1.55h3.662c3.856-0.059,6.814,3.021,6.774,6.724v0.253c0.042,3.703-2.918,6.783-6.774,6.725h-3.662h-8.323v-6.725l-0.002-0.251
			C291.571,28.12,294.532,25.037,298.386,25.096z"/>
	</g>
	<g>
		<path fill="#FFFFFF" d="M228.596,23.073h-3.662h-1.548c-4.539,0-8.235,3.545-8.455,7.993l-0.023,0.001v0.421v0.251v9.372h0.001
			l-0.001,23.745h1.705V41.155h0.001l8.32-0.002l3.662,0.002c4.685-0.002,8.479-3.769,8.479-8.416l0.001-1.253
			C237.074,26.84,233.28,23.073,228.596,23.073z M235.37,32.739c0.042,3.703-2.918,6.783-6.774,6.725h-3.662h-8.321v-7.92h-0.003
			l-0.001-0.056c-0.039-3.701,2.922-6.784,6.775-6.726h1.55h3.662c3.856-0.059,6.814,3.021,6.774,6.724V32.739z"/>
	</g>
	<g>
		<path fill="#FFFFFF" d="M348.256,36.242c3.825-0.057,6.763,1.043,6.722,4.773v0.18c0.041,3.73-2.896,5.83-6.722,5.773
			l-8.531-0.002v1.705h8.531c4.647,0,8.413-2.795,8.413-7.477v-0.18c0-4.682-3.766-6.477-8.413-6.477
			c-3.825,0.057-6.763-1.043-6.722-4.773v-0.18c-0.041-3.73,2.896-4.83,6.722-4.773l8.413,0.002v-1.705h-8.413
			c-4.647,0-8.413,1.795-8.413,6.477v0.18C339.843,34.447,343.608,36.242,348.256,36.242z"/>
	</g>
</g>
</svg>
