<?xml version="1.0" encoding="utf-8"?>
<!-- Generator: Adobe Illustrator 16.0.0, SVG Export Plug-In . SVG Version: 6.00 Build 0)  -->
<!DOCTYPE svg PUBLIC "-//W3C//DTD SVG 1.1//EN" "http://www.w3.org/Graphics/SVG/1.1/DTD/svg11.dtd">
<svg version="1.1" preserveAspectRatio="none" id="Layer_1" xmlns="http://www.w3.org/2000/svg" xmlns:xlink="http://www.w3.org/1999/xlink" x="0px" y="0px"
	 width="491.438px" height="250px" viewBox="0 0 491.438 250" enable-background="new 0 0 491.438 250" xml:space="preserve">
<polygon fill="#E31746" points="0.001,130.607 161.316,0 491.438,131.342 269.613,247.68 "/>
<polygon fill="#00A3DE" points="0.001,130.607 326.075,21.494 491.438,131.342 165.363,233.531 "/>
<g>
	<g>
		<g>
			<path fill="#FFFFFF" d="M173.632,97.752c0.053-3.34,3.432-7.115,7.195-7.143h4.559c3.729-0.043,6.828,2.896,6.771,6.723v16.943
				h1.701l0.002-16.943c0-4.646-3.797-8.416-8.475-8.416l-4.559,0.002c-3.75,0-6.93,2.416-8.047,5.766l-0.004,0.002
				c-1.115-3.352-4.297-5.768-8.049-5.77h-4.555c-4.682,0-8.479,3.77-8.477,8.416v16.943h1.703V97.336
				c-0.059-3.83,3.043-6.77,6.773-6.723h4.555c3.766,0.023,7.146,3.801,7.197,7.139l0.002,6.598h1.699L173.632,97.752z"/>
			<path fill="#FFFFFF" d="M321.626,105.443c0.051,3.334,3.434,7.115,7.197,7.141h2.441c3.73,0.041,6.83-2.896,6.773-6.721V88.916
				h1.701l0.002,16.945c-0.002,4.648-3.797,8.414-8.477,8.414l-2.443,0.002c-3.75-0.002-6.93-2.416-8.047-5.77h-0.004
				c-1.115,3.354-4.299,5.77-8.047,5.77l-2.865-0.002c-4.684,0-8.477-3.766-8.477-8.412V88.916h1.703l-0.002,16.947
				c-0.055,3.824,3.045,6.762,6.775,6.721l2.863,0.002c3.766-0.027,7.146-3.809,7.199-7.143l-0.002-6.6h1.705L321.626,105.443z"/>
			<path fill="#FFFFFF" d="M243.923,112.586h-4.557c-3.73,0.039-6.832-2.896-6.771-6.723V72.551h-1.705l0.002,33.312
				c0,4.645,3.795,8.41,8.475,8.41l4.557,0.002V112.586z"/>
			<path fill="#FFFFFF" d="M264.323,112.586h-4.557c-3.729,0.041-6.83-2.898-6.773-6.723V72.551l-1.703,0.002v33.311
				c0,4.645,3.793,8.412,8.477,8.414l4.559-0.002L264.323,112.586z"/>
			<g>
				<path fill="#FFFFFF" d="M285.476,88.916h-5.309c-4.68,0-8.477,3.768-8.477,8.42v6.566v1.961c0,4.646,3.797,8.412,8.477,8.412
					h5.307c4.682,0.002,8.479-3.766,8.479-8.412l-0.002-1.957l0.002-6.574C293.95,92.686,290.157,88.916,285.476,88.916z
					 M292.249,103.904v1.957c0.057,3.826-3.045,6.764-6.773,6.725l-5.309-0.002c-3.729,0.043-6.828-2.896-6.773-6.723v-1.955v-6.574
					c-0.057-3.826,3.045-6.766,6.773-6.719h5.309c3.729-0.047,6.828,2.893,6.773,6.719V103.904z"/>
			</g>
			<g>
				<path fill="#FFFFFF" d="M214.915,105.906c4.686-0.002,8.48-3.768,8.479-8.416l0.002-0.252c-0.002-4.646-3.795-8.414-8.48-8.414
					h-3.662h-1.547c-4.539,0-8.236,3.545-8.455,7.994h-0.023v0.422v0.25v8.373c0,4.646,3.795,8.412,8.477,8.412l1.549,0.002
					l12.141-0.002v-1.689l-12.139-0.002l-1.549,0.002c-3.842,0.055-6.791-2.998-6.773-6.68l8.32-0.002L214.915,105.906z
					 M209.704,90.514h1.549h3.662c3.857-0.059,6.814,3.021,6.775,6.725v0.252c0.041,3.703-2.918,6.783-6.775,6.725h-3.662h-8.322
					V97.49l-0.002-0.25C202.89,93.539,205.851,90.455,209.704,90.514z"/>
			</g>
		</g>
	</g>
	<path fill="#FFFFFF" d="M157.101,168.643c-0.002-0.869-0.709-1.59-1.588-1.59s-1.59,0.721-1.586,1.588
		c-0.004,0.883,0.707,1.594,1.586,1.594C156.388,170.234,157.101,169.52,157.101,168.643z"/>
	<path fill="#FFFFFF" d="M172.554,129.863c0-0.877-0.709-1.588-1.594-1.588c-0.869-0.004-1.582,0.715-1.582,1.588
		c0,0.875,0.707,1.59,1.586,1.588C171.845,131.451,172.55,130.74,172.554,129.863z"/>
	<path fill="#FFFFFF" d="M192.87,163.799c-0.002-0.715-0.584-1.305-1.301-1.305c-0.721,0-1.301,0.59-1.299,1.305
		c-0.002,0.719,0.578,1.299,1.299,1.299C192.29,165.092,192.87,164.512,192.87,163.799z"/>
	<path fill="#FFFFFF" d="M193.155,144.402c0-0.873-0.709-1.59-1.586-1.582c-0.883,0-1.59,0.709-1.588,1.582
		c0,0.875,0.707,1.592,1.588,1.592C192.446,145.994,193.153,145.281,193.155,144.402z"/>
	<path fill="#FFFFFF" d="M198.306,168.645c0-0.871-0.707-1.592-1.586-1.59c-0.879,0.004-1.586,0.719-1.586,1.592
		s0.709,1.588,1.586,1.588C197.599,170.229,198.306,169.521,198.306,168.645z"/>
	<path fill="#FFFFFF" d="M213.757,163.799c-0.002-0.871-0.707-1.59-1.586-1.59c-0.873,0-1.584,0.719-1.586,1.59
		c0,0.873,0.711,1.584,1.586,1.584S213.755,164.676,213.757,163.799z"/>
	<path fill="#FFFFFF" d="M213.755,158.947c0.004-0.877-0.707-1.586-1.582-1.586c-0.879,0-1.586,0.709-1.586,1.586
		s0.709,1.592,1.584,1.592C213.048,160.539,213.755,159.824,213.755,158.947z"/>
	<path fill="#FFFFFF" d="M213.755,139.559c0.006-0.879-0.703-1.59-1.588-1.59c-0.869,0-1.582,0.717-1.58,1.586
		c-0.002,0.885,0.709,1.592,1.586,1.592S213.755,140.439,213.755,139.559z"/>
	<path fill="#FFFFFF" d="M244.663,168.646c0.004-0.873-0.709-1.594-1.582-1.594c-0.879,0-1.592,0.721-1.592,1.592
		c0,0.875,0.711,1.59,1.588,1.59C243.956,170.234,244.671,169.52,244.663,168.646z"/>
	<path fill="#FFFFFF" d="M254.966,139.562c0-0.883-0.711-1.594-1.588-1.594c-0.873,0-1.59,0.717-1.584,1.586
		c-0.002,0.885,0.711,1.592,1.584,1.592C254.255,141.152,254.966,140.439,254.966,139.562z"/>
	<path fill="#FFFFFF" d="M270.417,168.641c-0.004-0.867-0.711-1.582-1.588-1.588c-0.879,0-1.584,0.721-1.584,1.592
		c0,0.875,0.705,1.59,1.586,1.59C269.706,170.234,270.413,169.523,270.417,168.641z"/>
	<path fill="#FFFFFF" d="M275.567,149.254c0-0.875-0.707-1.592-1.588-1.586c-0.875,0.002-1.586,0.711-1.586,1.586
		s0.713,1.582,1.586,1.586C274.86,150.846,275.567,150.133,275.567,149.254z"/>
	<path fill="#FFFFFF" d="M291.024,144.398c0-0.869-0.717-1.578-1.59-1.578c-0.877,0-1.586,0.709-1.59,1.582
		c0,0.879,0.713,1.592,1.59,1.592S291.024,145.285,291.024,144.398z"/>
	<path fill="#FFFFFF" d="M296.173,149.26c0-0.881-0.713-1.598-1.586-1.596c-0.879,0-1.586,0.715-1.588,1.59
		c0.002,0.879,0.709,1.584,1.588,1.59C295.46,150.842,296.171,150.133,296.173,149.26z"/>
	<path fill="#FFFFFF" d="M296.171,168.645c0-0.875-0.707-1.59-1.582-1.59c-0.879,0-1.594,0.721-1.59,1.59
		c0,0.879,0.707,1.584,1.586,1.584C295.464,170.236,296.171,169.52,296.171,168.645z"/>
	<path fill="#FFFFFF" d="M157.101,144.402c0-0.869-0.709-1.59-1.588-1.582c-0.877,0-1.588,0.709-1.59,1.582
		c0,0.875,0.713,1.592,1.59,1.592S157.099,145.281,157.101,144.402z"/>
	<path fill="#FFFFFF" d="M162.249,158.947c0-0.877-0.709-1.582-1.588-1.586c-0.873,0-1.582,0.707-1.588,1.586
		c0.006,0.877,0.715,1.588,1.59,1.592C161.544,160.539,162.253,159.824,162.249,158.947z"/>
	<path fill="#FFFFFF" d="M177.7,154.104c0.004-0.877-0.705-1.594-1.588-1.594c-0.873,0.008-1.588,0.717-1.588,1.594
		c0.002,0.875,0.715,1.584,1.59,1.588C176.993,155.688,177.704,154.979,177.7,154.104z"/>
	<path fill="#FFFFFF" d="M182.854,144.4c0.002-0.871-0.709-1.58-1.588-1.586c-0.879,0.006-1.586,0.715-1.59,1.592
		c0.004,0.879,0.713,1.588,1.588,1.586C182.146,145.994,182.856,145.285,182.854,144.4z"/>
	<path fill="#FFFFFF" d="M193.153,154.105c0.004-0.879-0.707-1.588-1.584-1.596c-0.875,0-1.586,0.717-1.588,1.596
		c0,0.869,0.713,1.584,1.588,1.584C192.448,155.693,193.155,154.98,193.153,154.105z"/>
	<path fill="#FFFFFF" d="M208.606,168.648c0.002-0.875-0.711-1.596-1.586-1.59c-0.875-0.006-1.586,0.711-1.582,1.586
		c-0.006,0.879,0.703,1.59,1.586,1.584C207.894,170.234,208.61,169.52,208.606,168.648z"/>
	<path fill="#FFFFFF" d="M229.208,149.254c0.004-0.873-0.707-1.59-1.584-1.59c-0.877,0.004-1.59,0.713-1.59,1.596
		c0.004,0.873,0.713,1.584,1.586,1.58C228.501,150.846,229.212,150.133,229.208,149.254z"/>
	<path fill="#FFFFFF" d="M234.364,158.947c0-0.879-0.711-1.588-1.586-1.586c-0.881-0.002-1.59,0.709-1.588,1.586
		c-0.002,0.877,0.707,1.592,1.58,1.592C233.655,160.539,234.364,159.824,234.364,158.947z"/>
	<path fill="#FFFFFF" d="M239.513,158.947c0-0.877-0.711-1.586-1.586-1.588c-0.879,0-1.588,0.711-1.588,1.588
		s0.703,1.592,1.588,1.592C238.8,160.539,239.513,159.826,239.513,158.947z"/>
	<path fill="#FFFFFF" d="M239.513,139.562c0-0.877-0.711-1.586-1.586-1.594c-0.881,0-1.588,0.717-1.588,1.594
		s0.709,1.584,1.588,1.584C238.804,141.146,239.513,140.439,239.513,139.562z"/>
	<path fill="#FFFFFF" d="M254.966,154.102c-0.004-0.877-0.709-1.594-1.588-1.586c-0.877-0.008-1.584,0.709-1.584,1.586
		s0.707,1.586,1.584,1.586C254.253,155.695,254.962,154.984,254.966,154.102z"/>
	<path fill="#FFFFFF" d="M260.118,168.645c-0.002-0.875-0.713-1.592-1.592-1.592c-0.873,0.006-1.586,0.721-1.584,1.592
		c-0.002,0.879,0.709,1.59,1.582,1.59C259.401,170.234,260.114,169.523,260.118,168.645z"/>
	<path fill="#FFFFFF" d="M275.569,129.863c-0.002-0.873-0.707-1.588-1.59-1.592c-0.873,0-1.582,0.713-1.586,1.592
		c0.004,0.877,0.713,1.588,1.586,1.59C274.86,131.451,275.567,130.738,275.569,129.863z"/>
	<path fill="#FFFFFF" d="M280.722,163.799c0-0.875-0.715-1.594-1.59-1.586c-0.877-0.008-1.59,0.711-1.586,1.586
		c-0.004,0.873,0.711,1.582,1.586,1.586C280.009,165.381,280.722,164.672,280.722,163.799z"/>
	<path fill="#FFFFFF" d="M291.021,158.947c0.004-0.877-0.709-1.588-1.588-1.586c-0.875-0.002-1.586,0.709-1.584,1.586
		c0,0.877,0.707,1.592,1.582,1.59C290.312,160.537,291.024,159.826,291.021,158.947z"/>
	<path fill="#FFFFFF" d="M301.458,168.65c-0.004-0.875-0.713-1.596-1.592-1.596c-0.879,0.006-1.584,0.721-1.584,1.596
		c0,0.869,0.711,1.586,1.588,1.578C300.747,170.236,301.462,169.52,301.458,168.65z"/>
	<path fill="#FFFFFF" d="M311.663,158.947c0.002-0.877-0.711-1.588-1.588-1.586c-0.881-0.002-1.588,0.707-1.588,1.586
		s0.707,1.592,1.59,1.592C310.952,160.539,311.663,159.826,311.663,158.947z"/>
	<path fill="#FFFFFF" d="M316.815,168.645c0-0.871-0.711-1.592-1.592-1.596c-0.879,0.01-1.584,0.725-1.584,1.596
		c-0.004,0.879,0.703,1.59,1.584,1.59S316.815,169.523,316.815,168.645z"/>
	<path fill="#FFFFFF" d="M316.817,139.559c-0.008-0.873-0.715-1.582-1.594-1.59c-0.879,0-1.584,0.711-1.584,1.59
		c0,0.881,0.705,1.594,1.584,1.594C316.104,141.145,316.815,140.432,316.817,139.559z"/>
	<path fill="#FFFFFF" d="M332.265,163.799c0-0.871-0.709-1.586-1.588-1.59c-0.875,0.004-1.584,0.719-1.588,1.594
		c0,0.873,0.713,1.58,1.592,1.58C331.556,165.383,332.265,164.674,332.265,163.799z"/>
	<path fill="#FFFFFF" d="M332.265,129.863c0-0.877-0.711-1.588-1.584-1.588c-0.879-0.004-1.588,0.711-1.592,1.588
		c0.004,0.875,0.713,1.588,1.588,1.588C331.556,131.453,332.269,130.74,332.265,129.863z"/>
	<path fill="#FFFFFF" d="M337.415,163.799c-0.004-0.871-0.707-1.59-1.588-1.59c-0.877,0.004-1.584,0.719-1.584,1.596
		c0.002,0.869,0.709,1.574,1.584,1.58C336.708,165.383,337.411,164.676,337.415,163.799z"/>
	<path fill="#FFFFFF" d="M157.72,134.707c0-1.217-0.988-2.199-2.213-2.199c-1.209-0.002-2.201,0.982-2.201,2.199
		c0.002,1.221,0.988,2.209,2.209,2.205C156.729,136.914,157.718,135.928,157.72,134.707z"/>
	<path fill="#FFFFFF" d="M168.021,154.104c-0.002-1.219-0.992-2.207-2.205-2.207c-1.219,0.002-2.209,0.988-2.213,2.207
		c0.006,1.215,0.996,2.205,2.211,2.201C167.028,156.309,168.024,155.318,168.021,154.104z"/>
	<path fill="#FFFFFF" d="M193.774,129.863c0-1.217-0.988-2.201-2.203-2.205c-1.221,0-2.207,0.992-2.207,2.205
		c-0.004,1.219,0.984,2.205,2.207,2.205C192.786,132.072,193.776,131.078,193.774,129.863z"/>
	<path fill="#FFFFFF" d="M198.925,149.25c0-1.219-0.988-2.203-2.205-2.201c-1.219,0-2.203,0.988-2.203,2.205
		s0.984,2.203,2.205,2.211C197.937,151.465,198.925,150.475,198.925,149.25z"/>
	<path fill="#FFFFFF" d="M198.925,129.863c-0.004-1.219-0.988-2.201-2.205-2.201c-1.223,0-2.209,0.988-2.203,2.201
		c-0.006,1.219,0.98,2.209,2.203,2.209C197.937,132.068,198.925,131.074,198.925,129.863z"/>
	<path fill="#FFFFFF" d="M209.226,129.863c0-1.213-0.99-2.201-2.205-2.201c-1.219-0.01-2.197,0.984-2.205,2.201
		c0.004,1.219,0.988,2.209,2.207,2.205C208.239,132.068,209.222,131.078,209.226,129.863z"/>
	<path fill="#FFFFFF" d="M229.831,154.104c0-1.223-0.988-2.207-2.209-2.207c-1.219,0-2.205,0.988-2.203,2.207
		c-0.002,1.215,0.982,2.205,2.205,2.201C228.843,156.309,229.831,155.318,229.831,154.104z"/>
	<path fill="#FFFFFF" d="M240.132,134.707c0.002-1.217-0.99-2.201-2.205-2.201c-1.219,0.002-2.205,0.984-2.207,2.201
		c0,1.221,0.988,2.209,2.207,2.207C239.138,136.914,240.134,135.928,240.132,134.707z"/>
	<path fill="#FFFFFF" d="M260.735,149.25c-0.002-1.213-0.99-2.201-2.209-2.201c-1.213-0.002-2.199,0.982-2.203,2.205
		c0.004,1.221,0.986,2.211,2.203,2.211C259.747,151.465,260.731,150.475,260.735,149.25z"/>
	<path fill="#FFFFFF" d="M265.888,168.65c-0.002-1.219-0.992-2.215-2.209-2.215c-1.217,0.006-2.209,0.996-2.203,2.209
		c-0.002,1.221,0.986,2.207,2.203,2.205C264.894,170.85,265.886,169.863,265.888,168.65z"/>
	<path fill="#FFFFFF" d="M302.075,163.799c0-1.213-0.988-2.209-2.205-2.211c-1.221,0.002-2.205,0.998-2.207,2.215
		c0.006,1.209,0.986,2.201,2.207,2.201C301.087,166.004,302.071,165.012,302.075,163.799z"/>
	<path fill="#FFFFFF" d="M312.284,163.799c-0.004-1.213-0.992-2.209-2.209-2.211c-1.219,0.002-2.207,0.994-2.207,2.211
		c-0.002,1.215,0.986,2.205,2.207,2.205C311.292,166.004,312.284,165.012,312.284,163.799z"/>
	<path fill="#FFFFFF" d="M322.581,163.803c0.002-1.221-0.988-2.213-2.205-2.215c-1.215,0.002-2.207,0.994-2.205,2.211
		c0,1.213,0.988,2.205,2.207,2.205C321.593,166.004,322.581,165.014,322.581,163.803z"/>
	<path fill="#FFFFFF" d="M332.882,158.941c0-1.209-0.988-2.197-2.203-2.197c-1.221,0.002-2.205,0.986-2.209,2.203
		c0.004,1.219,0.99,2.205,2.207,2.211C331.896,161.152,332.884,160.166,332.882,158.941z"/>
	<path fill="#FFFFFF" d="M157.72,154.102c-0.002-1.217-0.988-2.205-2.207-2.205s-2.207,0.984-2.207,2.207
		c0,1.215,0.988,2.205,2.205,2.201C156.729,156.309,157.718,155.318,157.72,154.102z"/>
	<path fill="#FFFFFF" d="M157.72,139.561c-0.002-1.219-0.99-2.207-2.207-2.207c-1.215,0-2.207,0.988-2.207,2.207
		c0,1.215,0.986,2.199,2.207,2.199C156.729,141.76,157.72,140.775,157.72,139.561z"/>
	<path fill="#FFFFFF" d="M162.866,154.102c-0.002-1.217-0.988-2.203-2.201-2.205c-1.223,0-2.205,0.988-2.205,2.205
		c0,1.215,0.982,2.203,2.205,2.207C161.882,156.305,162.866,155.32,162.866,154.102z"/>
	<path fill="#FFFFFF" d="M162.868,144.4c-0.002-1.211-0.99-2.195-2.203-2.195c-1.223,0-2.205,0.988-2.205,2.197
		c0,1.223,0.984,2.207,2.201,2.207S162.864,145.623,162.868,144.4z"/>
	<path fill="#FFFFFF" d="M162.868,134.709c-0.002-1.215-0.988-2.203-2.203-2.207c-1.223,0.004-2.201,0.988-2.205,2.207
		c-0.002,1.219,0.982,2.205,2.205,2.203C161.882,136.912,162.866,135.932,162.868,134.709z"/>
	<path fill="#FFFFFF" d="M168.022,149.25c-0.002-1.213-0.99-2.203-2.211-2.201c-1.215,0-2.203,0.988-2.207,2.205
		c0.004,1.217,0.992,2.213,2.207,2.203C167.028,151.467,168.021,150.477,168.022,149.25z"/>
	<path fill="#FFFFFF" d="M168.021,129.863c-0.004-1.217-0.992-2.205-2.213-2.201c-1.213-0.004-2.203,0.984-2.199,2.201
		c0,1.211,0.986,2.209,2.207,2.205C167.028,132.068,168.021,131.082,168.021,129.863z"/>
	<path fill="#FFFFFF" d="M173.173,149.25c-0.006-1.213-0.99-2.201-2.209-2.201c-1.217,0-2.207,0.988-2.203,2.201
		c-0.002,1.221,0.982,2.207,2.199,2.215C172.185,151.465,173.167,150.471,173.173,149.25z"/>
	<path fill="#FFFFFF" d="M178.319,149.254c0-1.217-0.984-2.197-2.207-2.205c-1.213,0-2.203,0.982-2.203,2.201
		c-0.004,1.221,0.986,2.217,2.203,2.207C177.337,151.457,178.323,150.471,178.319,149.254z"/>
	<path fill="#FFFFFF" d="M219.522,144.402c0.002-1.211-0.982-2.201-2.199-2.199c-1.219,0-2.209,0.988-2.209,2.199
		c0,1.223,0.986,2.211,2.207,2.211C218.54,146.607,219.526,145.625,219.522,144.402z"/>
	<path fill="#FFFFFF" d="M224.675,154.104c0-1.219-0.984-2.205-2.199-2.207c-1.219,0.002-2.207,0.988-2.207,2.207
		c-0.002,1.217,0.988,2.205,2.203,2.201C223.69,156.309,224.675,155.32,224.675,154.104z"/>
	<path fill="#FFFFFF" d="M229.831,144.398c0-1.209-0.992-2.193-2.207-2.197c-1.221,0.004-2.205,0.984-2.207,2.201
		c0,1.221,0.986,2.211,2.205,2.207C228.847,146.609,229.831,145.625,229.831,144.398z"/>
	<path fill="#FFFFFF" d="M234.979,144.402c0-1.215-0.984-2.199-2.207-2.199c-1.217-0.002-2.203,0.982-2.197,2.197
		c-0.006,1.217,0.979,2.207,2.195,2.213C233.991,146.607,234.979,145.625,234.979,144.402z"/>
	<path fill="#FFFFFF" d="M234.978,139.562c0.002-1.225-0.984-2.209-2.203-2.209c-1.221-0.002-2.203,0.988-2.199,2.207
		c-0.004,1.219,0.979,2.199,2.197,2.199S234.981,140.775,234.978,139.562z"/>
	<path fill="#FFFFFF" d="M255.583,134.705c-0.002-1.215-0.988-2.199-2.205-2.199s-2.203,0.984-2.203,2.201
		c0,1.221,0.988,2.207,2.203,2.207C254.595,136.918,255.583,135.928,255.583,134.705z"/>
	<path fill="#FFFFFF" d="M260.733,163.799c0-1.213-0.986-2.209-2.207-2.211c-1.215,0.002-2.203,0.994-2.203,2.211
		c0,1.213,0.992,2.199,2.199,2.205C259.747,165.998,260.735,165.012,260.733,163.799z"/>
	<path fill="#FFFFFF" d="M260.733,158.947c0-1.215-0.988-2.197-2.205-2.205c-1.217,0-2.205,0.988-2.205,2.205
		c0.004,1.221,0.99,2.207,2.205,2.207C259.745,161.154,260.735,160.166,260.733,158.947z"/>
	<path fill="#FFFFFF" d="M260.733,144.406c0.002-1.221-0.984-2.205-2.207-2.203c-1.213-0.002-2.203,0.984-2.203,2.199
		c0,1.223,0.988,2.205,2.203,2.211C259.745,146.607,260.733,145.621,260.733,144.406z"/>
	<path fill="#FFFFFF" d="M260.733,139.561c0-1.223-0.988-2.207-2.209-2.207c-1.211,0-2.201,0.988-2.197,2.207
		c0,1.215,0.986,2.199,2.199,2.199C259.745,141.76,260.733,140.775,260.733,139.561z"/>
	<path fill="#FFFFFF" d="M265.888,163.807c0-1.219-0.99-2.221-2.207-2.219c-1.219,0.002-2.209,0.998-2.209,2.219
		c0.004,1.205,0.99,2.193,2.209,2.193C264.896,166.004,265.882,165.02,265.888,163.807z"/>
	<path fill="#FFFFFF" d="M265.888,149.25c0-1.211-0.99-2.199-2.209-2.203c-1.217,0.004-2.205,0.992-2.205,2.203
		c-0.002,1.227,0.988,2.217,2.205,2.209C264.897,151.467,265.886,150.477,265.888,149.25z"/>
	<path fill="#FFFFFF" d="M265.888,129.863c0-1.211-0.992-2.201-2.209-2.205c-1.217,0.004-2.207,0.992-2.207,2.201
		c0,1.215,0.99,2.209,2.209,2.213C264.896,132.068,265.888,131.078,265.888,129.863z"/>
	<path fill="#FFFFFF" d="M271.034,149.25c-0.002-1.213-0.988-2.201-2.209-2.197c-1.215-0.004-2.203,0.984-2.199,2.197
		c0,1.227,0.984,2.207,2.203,2.207C270.046,151.467,271.034,150.471,271.034,149.25z"/>
	<path fill="#FFFFFF" d="M276.185,168.643c0-1.213-0.982-2.209-2.207-2.203c-1.211-0.006-2.201,0.988-2.203,2.207
		c0.002,1.213,0.99,2.203,2.207,2.203C275.2,170.852,276.187,169.859,276.185,168.643z"/>
	<path fill="#FFFFFF" d="M291.638,149.25c0-1.219-0.988-2.201-2.201-2.201c-1.219,0-2.207,0.982-2.207,2.205
		c0,1.217,0.988,2.203,2.203,2.211C290.651,151.457,291.638,150.471,291.638,149.25z"/>
	<path fill="#FFFFFF" d="M291.638,139.562c0-1.221-0.984-2.209-2.203-2.209s-2.201,0.984-2.205,2.209
		c0,1.213,0.988,2.197,2.205,2.197S291.636,140.779,291.638,139.562z"/>
	<path fill="#FFFFFF" d="M296.792,154.102c-0.002-1.217-0.99-2.205-2.205-2.205c-1.223,0-2.207,0.988-2.207,2.205
		c0,1.219,0.986,2.203,2.207,2.207C295.802,156.305,296.79,155.318,296.792,154.102z"/>
	<path fill="#FFFFFF" d="M296.792,134.707c0-1.217-0.992-2.201-2.207-2.199c-1.219-0.002-2.205,0.982-2.203,2.199
		c-0.006,1.221,0.982,2.207,2.205,2.207C295.802,136.91,296.79,135.924,296.792,134.707z"/>
	<path fill="#FFFFFF" d="M312.282,134.707c0.002-1.217-0.99-2.207-2.211-2.199c-1.211-0.008-2.203,0.982-2.203,2.199
		c-0.002,1.221,0.992,2.207,2.209,2.205C311.292,136.914,312.284,135.928,312.282,134.707z"/>
	<path fill="#FFFFFF" d="M317.433,144.398c-0.002-1.209-0.994-2.193-2.209-2.197c-1.215,0.004-2.205,0.988-2.203,2.199
		c0,1.225,0.984,2.213,2.201,2.209C316.442,146.613,317.433,145.625,317.433,144.398z"/>
	<path fill="#FFFFFF" d="M317.433,129.863c-0.002-1.219-0.992-2.199-2.209-2.201c-1.217-0.004-2.203,0.988-2.203,2.201
		c0,1.219,0.984,2.205,2.203,2.209C316.442,132.068,317.431,131.078,317.433,129.863z"/>
	<path fill="#FFFFFF" d="M322.583,168.645c-0.002-1.215-0.992-2.203-2.207-2.213c-1.217,0.01-2.205,1-2.207,2.219
		c0,1.213,0.99,2.201,2.207,2.201C321.591,170.85,322.583,169.865,322.583,168.645z"/>
	<path fill="#FFFFFF" d="M322.581,149.254c0.002-1.217-0.986-2.205-2.203-2.205c-1.221,0-2.211,0.988-2.211,2.205
		c0.002,1.221,0.99,2.211,2.211,2.211C321.591,151.465,322.581,150.475,322.581,149.254z"/>
	<path fill="#FFFFFF" d="M322.581,129.863c0-1.215-0.988-2.201-2.207-2.201c-1.213,0-2.203,0.982-2.207,2.201
		c0.002,1.211,0.994,2.205,2.209,2.209C321.593,132.068,322.583,131.074,322.581,129.863z"/>
	<path fill="#FFFFFF" d="M327.729,168.645c0-1.217-0.982-2.211-2.201-2.209c-1.219-0.002-2.203,0.992-2.203,2.207
		c0,1.223,0.98,2.207,2.205,2.207C326.747,170.85,327.729,169.859,327.729,168.645z"/>
	<path fill="#FFFFFF" d="M327.729,149.25c0-1.213-0.982-2.201-2.201-2.201s-2.205,0.988-2.203,2.201
		c-0.004,1.227,0.984,2.217,2.205,2.207C326.745,151.467,327.729,150.471,327.729,149.25z"/>
	<path fill="#FFFFFF" d="M332.884,149.254c0.002-1.223-0.988-2.205-2.207-2.205s-2.201,0.988-2.207,2.205
		c0.006,1.217,0.99,2.211,2.209,2.211C331.896,151.457,332.882,150.475,332.884,149.254z"/>
	<path fill="#FFFFFF" d="M338.03,154.102c0-1.217-0.979-2.205-2.201-2.205c-1.217,0-2.209,0.988-2.205,2.205
		c-0.002,1.219,0.988,2.207,2.207,2.207S338.032,155.316,338.03,154.102z"/>
	<path fill="#FFFFFF" d="M162.446,163.799c0-0.986-0.795-1.783-1.781-1.787c-0.99,0.004-1.785,0.801-1.785,1.791
		c-0.004,0.98,0.797,1.783,1.785,1.781C161.651,165.584,162.45,164.783,162.446,163.799z"/>
	<path fill="#FFFFFF" d="M172.753,154.102c-0.002-0.986-0.797-1.785-1.789-1.783c-0.986-0.002-1.783,0.799-1.783,1.783
		c0,0.986,0.795,1.785,1.783,1.785C171.954,155.887,172.753,155.088,172.753,154.102z"/>
	<path fill="#FFFFFF" d="M177.899,129.863c0-0.982-0.797-1.785-1.787-1.785c-0.982,0-1.787,0.803-1.785,1.785
		c0.004,0.986,0.803,1.789,1.785,1.789C177.103,131.648,177.899,130.848,177.899,129.863z"/>
	<path fill="#FFFFFF" d="M198.505,163.799c0-0.988-0.799-1.789-1.785-1.785c-0.992-0.004-1.787,0.797-1.787,1.785
		c0,0.982,0.795,1.785,1.787,1.785C197.706,165.584,198.505,164.783,198.505,163.799z"/>
	<path fill="#FFFFFF" d="M219.106,139.562c0-0.988-0.799-1.791-1.783-1.791s-1.785,0.803-1.789,1.791
		c0,0.98,0.805,1.783,1.791,1.777C218.308,141.346,219.106,140.543,219.106,139.562z"/>
	<circle fill="#FFFFFF" cx="268.829" cy="129.863" r="1.787"/>
	<path fill="#FFFFFF" d="M280.921,129.863c-0.006-0.98-0.807-1.785-1.787-1.785c-0.986,0-1.789,0.805-1.791,1.785
		c-0.002,0.992,0.803,1.789,1.789,1.787C280.122,131.65,280.921,130.85,280.921,129.863z"/>
	<path fill="#FFFFFF" d="M291.22,154.102c0-0.984-0.799-1.783-1.785-1.783c-0.986-0.002-1.789,0.799-1.785,1.783
		c-0.004,0.986,0.801,1.789,1.785,1.785C290.417,155.891,291.222,155.088,291.22,154.102z"/>
	<path fill="#FFFFFF" d="M296.37,144.402c0.002-0.986-0.799-1.781-1.783-1.781c-0.99,0-1.787,0.795-1.787,1.781
		c-0.004,0.99,0.797,1.787,1.785,1.791C295.571,146.189,296.366,145.393,296.37,144.402z"/>
	<path fill="#FFFFFF" d="M317.011,134.707c0-0.986-0.801-1.781-1.787-1.781c-0.984,0-1.783,0.793-1.787,1.783
		c0.006,0.986,0.803,1.783,1.787,1.785C316.21,136.494,317.015,135.699,317.011,134.707z"/>
	<path fill="#FFFFFF" d="M327.313,129.863c-0.006-0.984-0.795-1.785-1.791-1.785c-0.982,0-1.777,0.801-1.773,1.785
		c-0.004,0.986,0.789,1.785,1.777,1.789S327.313,130.85,327.313,129.863z"/>
	<path fill="#FFFFFF" d="M157.3,158.947c0.004-0.988-0.801-1.783-1.789-1.785c-0.988,0-1.787,0.797-1.787,1.785
		c0.006,0.988,0.803,1.789,1.789,1.789C156.501,160.732,157.3,159.936,157.3,158.947z"/>
	<path fill="#FFFFFF" d="M162.45,139.562c0.002-0.988-0.799-1.795-1.789-1.795c-0.986,0-1.783,0.807-1.787,1.795
		c0.004,0.982,0.803,1.777,1.791,1.783C161.651,141.34,162.448,140.545,162.45,139.562z"/>
	<path fill="#FFFFFF" d="M183.056,139.562c0.002-0.988-0.801-1.795-1.795-1.795c-0.982,0-1.783,0.807-1.779,1.795
		c-0.004,0.977,0.797,1.777,1.783,1.783C182.255,141.34,183.058,140.539,183.056,139.562z"/>
	<path fill="#FFFFFF" d="M193.644,158.947c-0.002-1.143-0.928-2.072-2.072-2.072c-1.15,0-2.08,0.93-2.078,2.072
		c0,1.148,0.93,2.074,2.076,2.074S193.64,160.096,193.644,158.947z"/>
	<path fill="#FFFFFF" d="M198.503,154.102c0.002-0.984-0.797-1.785-1.783-1.783c-0.99-0.002-1.787,0.797-1.787,1.783
		s0.799,1.785,1.787,1.785S198.505,155.088,198.503,154.102z"/>
	<path fill="#FFFFFF" d="M208.81,163.799c-0.004-0.986-0.801-1.787-1.787-1.787c-0.984,0.004-1.787,0.801-1.789,1.787
		c0.002,0.984,0.801,1.787,1.787,1.785C208.007,165.586,208.81,164.783,208.81,163.799z"/>
	<path fill="#FFFFFF" d="M219.106,154.105c-0.004-0.99-0.799-1.789-1.783-1.787c-0.986-0.002-1.789,0.797-1.789,1.783
		s0.807,1.785,1.785,1.789C218.312,155.887,219.106,155.088,219.106,154.105z"/>
	<path fill="#FFFFFF" d="M224.259,149.254c0-0.984-0.797-1.791-1.785-1.791s-1.787,0.811-1.789,1.787
		c0.002,0.992,0.807,1.791,1.789,1.791C223.458,151.041,224.259,150.246,224.259,149.254z"/>
	<path fill="#FFFFFF" d="M244.862,163.799c0-0.986-0.799-1.787-1.785-1.787c-0.988,0-1.787,0.801-1.781,1.787
		c-0.006,0.986,0.797,1.783,1.781,1.787C244.063,165.586,244.862,164.781,244.862,163.799z"/>
	<path fill="#FFFFFF" d="M244.862,134.707c0-0.986-0.797-1.781-1.781-1.785c-0.988,0-1.789,0.799-1.789,1.785
		c0,0.992,0.801,1.787,1.789,1.787C244.065,136.494,244.862,135.699,244.862,134.707z"/>
	<path fill="#FFFFFF" d="M255.165,163.799c-0.002-0.986-0.801-1.787-1.787-1.787s-1.787,0.801-1.785,1.787
		c0,0.982,0.797,1.787,1.785,1.787C254.364,165.582,255.163,164.781,255.165,163.799z"/>
	<path fill="#FFFFFF" d="M255.165,149.254c-0.002-0.984-0.801-1.791-1.787-1.791c-0.984,0-1.785,0.807-1.785,1.797
		c0,0.982,0.799,1.781,1.785,1.785C254.364,151.041,255.163,150.242,255.165,149.254z"/>
	<path fill="#FFFFFF" d="M260.312,154.102c-0.002-0.984-0.797-1.783-1.785-1.785c-0.984,0-1.785,0.801-1.781,1.785
		c-0.002,0.986,0.797,1.787,1.781,1.787S260.312,155.088,260.312,154.102z"/>
	<path fill="#FFFFFF" d="M260.313,134.707c0-0.986-0.799-1.781-1.785-1.783c-0.984,0-1.787,0.801-1.787,1.783
		c0.002,0.992,0.803,1.787,1.787,1.785C259.511,136.494,260.315,135.699,260.313,134.707z"/>
	<path fill="#FFFFFF" d="M265.466,144.402c0-0.98-0.801-1.781-1.787-1.777c-0.986-0.004-1.785,0.791-1.785,1.777
		c0.002,0.99,0.801,1.787,1.785,1.787C264.665,146.193,265.468,145.389,265.466,144.402z"/>
	<path fill="#FFFFFF" d="M270.612,163.799c0.006-0.99-0.795-1.793-1.785-1.787c-0.982,0-1.783,0.801-1.783,1.791
		c0,0.979,0.801,1.783,1.783,1.783C269.817,165.586,270.612,164.781,270.612,163.799z"/>
	<path fill="#FFFFFF" d="M280.919,144.4c0.002-0.982-0.797-1.779-1.783-1.779c-0.99,0-1.793,0.795-1.793,1.781
		c0.004,0.986,0.803,1.787,1.793,1.787C280.122,146.189,280.921,145.387,280.919,144.4z"/>
	<path fill="#FFFFFF" d="M291.22,134.709c0-0.984-0.799-1.785-1.785-1.783c-0.986-0.002-1.789,0.793-1.785,1.781
		c-0.006,0.994,0.799,1.787,1.785,1.785C290.417,136.502,291.22,135.701,291.22,134.709z"/>
	<path fill="#FFFFFF" d="M296.37,163.799c-0.006-0.988-0.793-1.789-1.783-1.783c-0.992,0-1.787,0.795-1.783,1.783
		c-0.004,0.982,0.793,1.787,1.783,1.783C295.571,165.582,296.366,164.783,296.37,163.799z"/>
	<path fill="#FFFFFF" d="M317.013,163.799c0-0.986-0.801-1.787-1.785-1.787c-0.99,0-1.787,0.801-1.787,1.787
		c-0.004,0.986,0.797,1.787,1.783,1.785C316.212,165.584,317.013,164.783,317.013,163.799z"/>
	<path fill="#FFFFFF" d="M317.013,149.25c0-0.979-0.801-1.781-1.789-1.787c-0.988,0.006-1.787,0.807-1.783,1.791
		c0,0.988,0.797,1.787,1.781,1.791C316.21,151.045,317.013,150.246,317.013,149.25z"/>
	<path fill="#FFFFFF" d="M327.308,144.4c0.006-0.982-0.793-1.779-1.783-1.779c-0.984,0-1.779,0.797-1.779,1.781
		s0.795,1.791,1.785,1.787C326.515,146.189,327.31,145.393,327.308,144.4z"/>
	<path fill="#FFFFFF" d="M332.462,168.646c-0.002-0.99-0.799-1.789-1.781-1.789c-0.992,0-1.791,0.799-1.787,1.789
		c0,0.98,0.797,1.783,1.783,1.783S332.462,169.631,332.462,168.646z"/>
	<path fill="#FFFFFF" d="M332.462,154.102c0.002-0.984-0.797-1.785-1.783-1.783c-0.988-0.002-1.787,0.797-1.789,1.783
		c0.002,0.986,0.797,1.785,1.789,1.785C331.663,155.887,332.464,155.088,332.462,154.102z"/>
	<path fill="#FFFFFF" d="M337.614,158.945c0-0.982-0.799-1.775-1.783-1.783c-0.988,0-1.791,0.801-1.791,1.785
		c0.006,0.988,0.803,1.791,1.789,1.785C336.819,160.732,337.614,159.938,337.614,158.945z"/>
	<path fill="#FFFFFF" d="M337.614,149.25c0-0.98-0.803-1.779-1.787-1.787c-0.984,0-1.783,0.807-1.783,1.791
		c-0.004,0.992,0.801,1.787,1.783,1.787C336.819,151.039,337.614,150.246,337.614,149.25z"/>
	<path fill="#FFFFFF" d="M162.647,129.887c0.004-1.098-0.889-1.982-1.982-1.986c-1.1,0.004-1.984,0.895-1.98,1.982
		c0,1.102,0.883,1.99,1.98,1.99C161.759,131.873,162.646,130.984,162.647,129.887z"/>
	<path fill="#FFFFFF" d="M183.251,149.279c0-1.1-0.885-1.988-1.988-1.988c-1.096,0.002-1.98,0.891-1.984,1.988
		c0.004,1.098,0.893,1.982,1.984,1.982C182.366,151.262,183.251,150.377,183.251,149.279z"/>
	<path fill="#FFFFFF" d="M198.702,158.973c0.002-1.094-0.887-1.984-1.982-1.984c-1.1,0-1.982,0.891-1.982,1.99
		c0.002,1.092,0.885,1.98,1.982,1.982C197.812,160.961,198.702,160.07,198.702,158.973z"/>
	<path fill="#FFFFFF" d="M198.704,134.729c0-1.096-0.889-1.98-1.984-1.98c-1.098,0-1.982,0.895-1.98,1.98
		c0,1.104,0.881,1.996,1.984,1.986C197.812,136.719,198.704,135.834,198.704,134.729z"/>
	<path fill="#FFFFFF" d="M234.761,154.123c0-1.094-0.889-1.98-1.988-1.982c-1.096,0.002-1.979,0.889-1.979,1.986
		c-0.004,1.098,0.883,1.986,1.977,1.986C233.872,156.113,234.757,155.223,234.761,154.123z"/>
	<path fill="#FFFFFF" d="M255.36,158.975c0.002-1.1-0.887-1.986-1.977-1.99c-1.102,0.01-1.99,0.891-1.99,1.99
		c-0.002,1.098,0.887,1.988,1.98,1.984C254.478,160.959,255.362,160.066,255.36,158.975z"/>
	<path fill="#FFFFFF" d="M291.421,129.883c0-1.088-0.893-1.98-1.984-1.984c-1.098,0.006-1.986,0.896-1.988,1.988
		c0.002,1.098,0.891,1.99,1.986,1.986C290.528,131.877,291.421,130.984,291.421,129.883z"/>
	<path fill="#FFFFFF" d="M312.06,139.58c0.002-1.094-0.887-1.982-1.988-1.979c-1.094-0.004-1.982,0.885-1.982,1.979
		c0,1.092,0.893,1.984,1.988,1.984S312.058,140.676,312.06,139.58z"/>
	<path fill="#FFFFFF" d="M322.358,144.43c0.002-1.096-0.887-1.984-1.986-1.984c-1.092,0.004-1.984,0.889-1.979,1.982
		c-0.004,1.102,0.887,1.984,1.98,1.988C321.472,146.416,322.358,145.531,322.358,144.43z"/>
	<path fill="#FFFFFF" d="M327.513,163.822c-0.004-1.094-0.891-1.988-1.984-1.982c-1.098,0.004-1.984,0.885-1.98,1.982
		c-0.004,1.092,0.883,1.988,1.979,1.982C326.626,165.805,327.509,164.914,327.513,163.822z"/>
	<path fill="#FFFFFF" d="M157.495,163.824c0-1.1-0.887-1.984-1.98-1.99c-1.094,0-1.984,0.891-1.988,1.99
		c0,1.09,0.891,1.986,1.984,1.986C156.608,165.811,157.495,164.914,157.495,163.824z"/>
	<path fill="#FFFFFF" d="M157.495,149.279c0-1.098-0.887-1.988-1.982-1.988c-1.096,0.002-1.986,0.891-1.986,1.986
		c0,1.1,0.891,1.982,1.986,1.982C156.608,151.266,157.497,150.377,157.495,149.279z"/>
	<path fill="#FFFFFF" d="M183.251,134.734c0-1.098-0.885-1.982-1.986-1.982c-1.098,0-1.982,0.885-1.982,1.982s0.889,1.984,1.98,1.98
		C182.364,136.719,183.251,135.832,183.251,134.734z"/>
	<path fill="#FFFFFF" d="M193.552,149.277c0.004-1.096-0.885-1.984-1.98-1.986c-1.102,0-1.988,0.896-1.984,1.986
		c-0.004,1.1,0.883,1.988,1.982,1.982C192.667,151.26,193.556,150.377,193.552,149.277z"/>
	<path fill="#FFFFFF" d="M209.003,134.734c0.002-1.098-0.887-1.982-1.984-1.982c-1.094-0.006-1.979,0.887-1.979,1.982
		c0,1.102,0.885,1.98,1.982,1.982C208.116,136.717,209.003,135.828,209.003,134.734z"/>
	<path fill="#FFFFFF" d="M219.304,158.977c-0.002-1.098-0.889-1.984-1.98-1.984c-1.1,0-1.986,0.887-1.99,1.98
		c0.004,1.1,0.895,1.988,1.988,1.986C218.415,160.959,219.302,160.07,219.304,158.977z"/>
	<path fill="#FFFFFF" d="M224.456,144.428c-0.002-1.094-0.885-1.982-1.979-1.982c-1.1,0-1.994,0.889-1.986,1.982
		c-0.006,1.104,0.885,1.98,1.982,1.988C223.571,146.412,224.452,145.531,224.456,144.428z"/>
	<path fill="#FFFFFF" d="M245.062,129.883c0-1.088-0.889-1.979-1.98-1.979c-1.105,0-1.986,0.887-1.986,1.979
		c0,1.098,0.885,1.992,1.982,1.992C244.173,131.875,245.058,130.986,245.062,129.883z"/>
	<path fill="#FFFFFF" d="M255.362,144.428c0-1.09-0.891-1.979-1.984-1.982c-1.092,0-1.982,0.889-1.984,1.982
		c0.002,1.102,0.887,1.984,1.984,1.984C254.478,146.416,255.362,145.531,255.362,144.428z"/>
	<path fill="#FFFFFF" d="M260.515,129.883c-0.006-1.088-0.889-1.979-1.988-1.984c-1.09,0.004-1.982,0.896-1.982,1.988
		c0,1.098,0.893,1.986,1.982,1.986C259.622,131.877,260.517,130.984,260.515,129.883z"/>
	<path fill="#FFFFFF" d="M270.813,144.428c0-1.09-0.887-1.982-1.986-1.982c-1.094-0.002-1.982,0.893-1.984,1.982
		c0.002,1.104,0.887,1.984,1.984,1.984C269.927,146.412,270.813,145.531,270.813,144.428z"/>
	<path fill="#FFFFFF" d="M275.968,163.822c0-1.098-0.887-1.988-1.988-1.986c-1.096,0.004-1.98,0.889-1.98,1.986
		c0,1.092,0.885,1.988,1.977,1.988C275.075,165.811,275.968,164.914,275.968,163.822z"/>
	<path fill="#FFFFFF" d="M275.962,144.43c0.006-1.1-0.881-1.984-1.984-1.984c-1.092,0-1.977,0.893-1.979,1.982
		c-0.004,1.102,0.887,1.984,1.982,1.984C275.081,146.412,275.968,145.525,275.962,144.43z"/>
	<path fill="#FFFFFF" d="M291.417,163.828c0.004-1.104-0.889-1.984-1.982-1.994c-1.098,0.01-1.984,0.891-1.984,1.99
		c-0.002,1.096,0.889,1.98,1.984,1.986C290.528,165.805,291.425,164.914,291.417,163.828z"/>
	<path fill="#FFFFFF" d="M296.571,139.582c0.002-1.096-0.893-1.984-1.984-1.984c-1.098,0-1.986,0.889-1.986,1.984
		c0.004,1.094,0.889,1.982,1.986,1.982C295.681,141.564,296.569,140.682,296.571,139.582z"/>
	<path fill="#FFFFFF" d="M296.569,158.977c0.002-1.102-0.883-1.988-1.984-1.988c-1.098,0-1.984,0.891-1.984,1.986
		c0.004,1.092,0.889,1.986,1.986,1.984C295.687,160.959,296.569,160.07,296.569,158.977z"/>
	<path fill="#FFFFFF" d="M312.06,144.428c0.002-1.094-0.889-1.982-1.984-1.982c-1.098,0-1.986,0.893-1.984,1.984
		c-0.002,1.1,0.887,1.982,1.984,1.982C311.171,146.408,312.06,145.531,312.06,144.428z"/>
	<path fill="#FFFFFF" d="M332.663,144.428c0.004-1.09-0.889-1.982-1.982-1.984c-1.104,0.002-1.986,0.891-1.988,1.984
		c0.002,1.102,0.887,1.984,1.984,1.988C331.771,146.412,332.661,145.531,332.663,144.428z"/>
	<path fill="#FFFFFF" d="M337.81,134.734c0-1.098-0.883-1.982-1.982-1.98c-1.096-0.008-1.98,0.883-1.98,1.98s0.885,1.98,1.984,1.98
		C336.927,136.715,337.815,135.832,337.81,134.734z"/>
</g>
</svg>
