<?xml version="1.0" encoding="utf-8"?>
<!-- Generator: Adobe Illustrator 16.0.0, SVG Export Plug-In . SVG Version: 6.00 Build 0)  -->
<!DOCTYPE svg PUBLIC "-//W3C//DTD SVG 1.1//EN" "http://www.w3.org/Graphics/SVG/1.1/DTD/svg11.dtd">
<svg version="1.1" preserveAspectRatio="none" id="Layer_1" xmlns="http://www.w3.org/2000/svg" xmlns:xlink="http://www.w3.org/1999/xlink" x="0px" y="0px"
	 width="491.438px" height="250px" viewBox="0 0 491.438 250" enable-background="new 0 0 491.438 250" xml:space="preserve">
<polyline opacity="0.6" fill="#33CCFF" points="0.001,130.607 161.316,0 491.438,131.342 "/>
<polyline opacity="0.6" fill="#0099FF" points="0.001,130.607 326.075,21.494 491.438,131.342 "/>
<polyline opacity="0.6" fill="#33CCFF" points="491.437,133.663 269.612,250 0,132.975 "/>
<polyline opacity="0.6" fill="#0099FF" points="491.437,133.663 165.362,235.852 0,132.975 "/>
<g>
	<g>
		<g>
			<path fill="#FFFFFF" d="M173.632,108.752c0.053-3.34,3.432-7.116,7.195-7.144h4.559c3.729-0.042,6.828,2.897,6.771,6.723v16.944
				h1.701l0.002-16.944c0-4.646-3.797-8.415-8.475-8.415l-4.559,0.002c-3.75,0-6.93,2.416-8.047,5.765l-0.004,0.002
				c-1.115-3.351-4.297-5.767-8.049-5.769h-4.555c-4.682,0-8.479,3.77-8.477,8.415v16.944h1.703v-16.94
				c-0.059-3.829,3.043-6.769,6.773-6.723h4.555c3.766,0.023,7.146,3.802,7.197,7.14l0.002,6.598h1.699L173.632,108.752z"/>
			<path fill="#FFFFFF" d="M321.626,116.443c0.051,3.334,3.434,7.115,7.197,7.141h2.441c3.73,0.041,6.83-2.896,6.773-6.722V99.916
				h1.701l0.002,16.945c-0.002,4.648-3.797,8.414-8.477,8.414l-2.443,0.002c-3.75-0.002-6.93-2.416-8.047-5.77h-0.004
				c-1.115,3.354-4.299,5.77-8.047,5.77l-2.865-0.002c-4.684,0-8.477-3.766-8.477-8.413V99.916h1.703l-0.002,16.946
				c-0.055,3.825,3.045,6.763,6.775,6.722l2.863,0.001c3.766-0.026,7.146-3.808,7.199-7.142l-0.002-6.601l1.705,0.001
				L321.626,116.443z"/>
			<path fill="#FFFFFF" d="M243.923,123.585h-4.557c-3.73,0.04-6.832-2.896-6.771-6.723V83.55h-1.705l0.002,33.312
				c0,4.646,3.795,8.411,8.475,8.411l4.557,0.002V123.585z"/>
			<path fill="#FFFFFF" d="M264.323,123.585h-4.557c-3.729,0.042-6.83-2.897-6.773-6.723V83.55l-1.703,0.002v33.311
				c0,4.646,3.793,8.413,8.477,8.415l4.559-0.002L264.323,123.585z"/>
			<g>
				<path fill="#FFFFFF" d="M285.476,99.916h-5.309c-4.68,0-8.477,3.767-8.477,8.419v6.567v1.96c0,4.647,3.797,8.413,8.477,8.413
					h5.307c4.682,0.002,8.479-3.766,8.479-8.413l-0.002-1.956l0.002-6.575C293.95,103.686,290.157,99.916,285.476,99.916z
					 M292.249,114.904v1.957c0.057,3.826-3.045,6.764-6.773,6.724l-5.309-0.001c-3.729,0.043-6.828-2.896-6.773-6.723v-1.955v-6.575
					c-0.057-3.825,3.045-6.765,6.773-6.719h5.309c3.729-0.046,6.828,2.894,6.773,6.719V114.904z"/>
			</g>
			<g>
				<path fill="#FFFFFF" d="M214.915,116.906c4.686-0.002,8.48-3.769,8.479-8.416l0.002-0.253c-0.002-4.646-3.795-8.413-8.48-8.413
					h-3.662h-1.547c-4.539,0-8.236,3.545-8.455,7.993l-0.023,0.001v0.421v0.251v8.372c0,4.647,3.795,8.413,8.477,8.413l1.549,0.002
					l12.141-0.002v-1.69l-12.139-0.001l-1.549,0.001c-3.842,0.056-6.791-2.997-6.773-6.679l8.32-0.002L214.915,116.906z
					 M209.704,101.514h1.549h3.662c3.857-0.059,6.814,3.021,6.775,6.724v0.253c0.041,3.703-2.918,6.783-6.775,6.725h-3.662h-8.322
					v-6.725l-0.002-0.251C202.89,104.538,205.851,101.455,209.704,101.514z"/>
			</g>
		</g>
	</g>
	<path fill="#FFFFFF" d="M157.101,179.642c-0.002-0.868-0.709-1.589-1.588-1.589s-1.59,0.721-1.586,1.587
		c-0.004,0.883,0.707,1.594,1.586,1.594C156.388,181.233,157.101,180.52,157.101,179.642z"/>
	<path fill="#FFFFFF" d="M172.554,140.863c0-0.878-0.709-1.588-1.594-1.588c-0.869-0.005-1.582,0.715-1.582,1.588
		c0,0.875,0.707,1.589,1.586,1.587C171.845,142.45,172.55,141.74,172.554,140.863z"/>
	<path fill="#FFFFFF" d="M192.87,174.799c-0.002-0.716-0.584-1.305-1.301-1.305c-0.721,0-1.301,0.589-1.299,1.305
		c-0.002,0.718,0.578,1.298,1.299,1.298C192.29,176.092,192.87,175.512,192.87,174.799z"/>
	<path fill="#FFFFFF" d="M193.155,155.402c0-0.874-0.709-1.591-1.586-1.582c-0.883,0-1.59,0.708-1.588,1.582
		c0,0.875,0.707,1.591,1.588,1.591C192.446,156.993,193.153,156.281,193.155,155.402z"/>
	<path fill="#FFFFFF" d="M198.306,179.645c0-0.871-0.707-1.592-1.586-1.59c-0.879,0.004-1.586,0.719-1.586,1.592
		c0,0.872,0.709,1.587,1.586,1.587C197.599,181.229,198.306,180.521,198.306,179.645z"/>
	<path fill="#FFFFFF" d="M213.757,174.799c-0.002-0.872-0.707-1.591-1.586-1.591c-0.873,0-1.584,0.719-1.586,1.591
		c0,0.872,0.711,1.584,1.586,1.584S213.755,175.676,213.757,174.799z"/>
	<path fill="#FFFFFF" d="M213.755,169.947c0.004-0.877-0.707-1.586-1.582-1.586c-0.879,0-1.586,0.709-1.586,1.586
		c0,0.876,0.709,1.592,1.584,1.592C213.048,171.539,213.755,170.823,213.755,169.947z"/>
	<path fill="#FFFFFF" d="M213.755,150.559c0.006-0.879-0.703-1.59-1.588-1.59c-0.869,0-1.582,0.717-1.58,1.585
		c-0.002,0.885,0.709,1.593,1.586,1.593S213.755,151.438,213.755,150.559z"/>
	<path fill="#FFFFFF" d="M244.663,179.646c0.004-0.873-0.709-1.594-1.582-1.594c-0.879,0-1.592,0.721-1.592,1.592
		c0,0.875,0.711,1.589,1.588,1.589C243.956,181.233,244.671,180.52,244.663,179.646z"/>
	<path fill="#FFFFFF" d="M254.966,150.562c0-0.883-0.711-1.594-1.588-1.594c-0.873,0-1.59,0.717-1.584,1.585
		c-0.002,0.885,0.711,1.593,1.584,1.593C254.255,152.151,254.966,151.438,254.966,150.562z"/>
	<path fill="#FFFFFF" d="M270.417,179.64c-0.004-0.866-0.711-1.581-1.588-1.587c-0.879,0-1.584,0.721-1.584,1.592
		c0,0.875,0.705,1.589,1.586,1.589C269.706,181.233,270.413,180.522,270.417,179.64z"/>
	<path fill="#FFFFFF" d="M275.567,160.254c0-0.875-0.707-1.593-1.588-1.586c-0.875,0.002-1.586,0.711-1.586,1.586
		s0.713,1.582,1.586,1.586C274.86,161.846,275.567,161.133,275.567,160.254z"/>
	<path fill="#FFFFFF" d="M291.024,155.398c0-0.87-0.717-1.578-1.59-1.578c-0.877,0-1.586,0.708-1.59,1.582
		c0,0.879,0.713,1.591,1.59,1.591S291.024,156.285,291.024,155.398z"/>
	<path fill="#FFFFFF" d="M296.173,160.259c0-0.88-0.713-1.598-1.586-1.596c-0.879,0-1.586,0.716-1.588,1.591
		c0.002,0.879,0.709,1.584,1.588,1.59C295.46,161.842,296.171,161.133,296.173,160.259z"/>
	<path fill="#FFFFFF" d="M296.171,179.645c0-0.876-0.707-1.591-1.582-1.591c-0.879,0-1.594,0.721-1.59,1.591
		c0,0.878,0.707,1.584,1.586,1.584C295.464,181.235,296.171,180.52,296.171,179.645z"/>
	<path fill="#FFFFFF" d="M157.101,155.402c0-0.869-0.709-1.591-1.588-1.582c-0.877,0-1.588,0.708-1.59,1.582
		c0,0.875,0.713,1.591,1.59,1.591S157.099,156.281,157.101,155.402z"/>
	<path fill="#FFFFFF" d="M162.249,169.947c0-0.877-0.709-1.583-1.588-1.586c-0.873,0-1.582,0.707-1.588,1.586
		c0.006,0.876,0.715,1.588,1.59,1.592C161.544,171.539,162.253,170.823,162.249,169.947z"/>
	<path fill="#FFFFFF" d="M177.7,165.103c0.004-0.877-0.705-1.593-1.588-1.593c-0.873,0.007-1.588,0.716-1.588,1.593
		c0.002,0.875,0.715,1.585,1.59,1.588C176.993,166.688,177.704,165.978,177.7,165.103z"/>
	<path fill="#FFFFFF" d="M182.854,155.4c0.002-0.872-0.709-1.58-1.588-1.586c-0.879,0.006-1.586,0.714-1.59,1.592
		c0.004,0.878,0.713,1.587,1.588,1.585C182.146,156.993,182.856,156.284,182.854,155.4z"/>
	<path fill="#FFFFFF" d="M193.153,165.105c0.004-0.879-0.707-1.589-1.584-1.596c-0.875,0-1.586,0.717-1.588,1.596
		c0,0.869,0.713,1.584,1.588,1.584C192.448,166.692,193.155,165.979,193.153,165.105z"/>
	<path fill="#FFFFFF" d="M208.606,179.647c0.002-0.874-0.711-1.595-1.586-1.59c-0.875-0.005-1.586,0.711-1.582,1.587
		c-0.006,0.878,0.703,1.589,1.586,1.584C207.894,181.233,208.61,180.52,208.606,179.647z"/>
	<path fill="#FFFFFF" d="M229.208,160.254c0.004-0.873-0.707-1.591-1.584-1.591c-0.877,0.005-1.59,0.714-1.59,1.597
		c0.004,0.873,0.713,1.583,1.586,1.58C228.501,161.846,229.212,161.133,229.208,160.254z"/>
	<path fill="#FFFFFF" d="M234.364,169.947c0-0.879-0.711-1.589-1.586-1.586c-0.881-0.003-1.59,0.709-1.588,1.586
		c-0.002,0.876,0.707,1.592,1.58,1.592C233.655,171.539,234.364,170.823,234.364,169.947z"/>
	<path fill="#FFFFFF" d="M239.513,169.947c0-0.877-0.711-1.586-1.586-1.589c-0.879,0-1.588,0.712-1.588,1.589
		c0,0.876,0.703,1.592,1.588,1.592C238.8,171.539,239.513,170.826,239.513,169.947z"/>
	<path fill="#FFFFFF" d="M239.513,150.562c0-0.877-0.711-1.587-1.586-1.594c-0.881,0-1.588,0.717-1.588,1.594
		c0,0.876,0.709,1.584,1.588,1.584C238.804,152.146,239.513,151.438,239.513,150.562z"/>
	<path fill="#FFFFFF" d="M254.966,165.102c-0.004-0.877-0.709-1.594-1.588-1.586c-0.877-0.008-1.584,0.709-1.584,1.586
		c0,0.876,0.707,1.586,1.584,1.586C254.253,166.694,254.962,165.984,254.966,165.102z"/>
	<path fill="#FFFFFF" d="M260.118,179.645c-0.002-0.876-0.713-1.592-1.592-1.592c-0.873,0.005-1.586,0.721-1.584,1.592
		c-0.002,0.878,0.709,1.589,1.582,1.589C259.401,181.233,260.114,180.522,260.118,179.645z"/>
	<path fill="#FFFFFF" d="M275.569,140.863c-0.002-0.873-0.707-1.588-1.59-1.593c-0.873,0-1.582,0.714-1.586,1.593
		c0.004,0.877,0.713,1.587,1.586,1.589C274.86,142.45,275.567,141.738,275.569,140.863z"/>
	<path fill="#FFFFFF" d="M280.722,174.798c0-0.874-0.715-1.593-1.59-1.585c-0.877-0.008-1.59,0.711-1.586,1.585
		c-0.004,0.874,0.711,1.583,1.586,1.587C280.009,176.381,280.722,175.672,280.722,174.798z"/>
	<path fill="#FFFFFF" d="M291.021,169.947c0.004-0.877-0.709-1.589-1.588-1.586c-0.875-0.003-1.586,0.709-1.584,1.586
		c0,0.876,0.707,1.592,1.582,1.59C290.312,171.537,291.024,170.826,291.021,169.947z"/>
	<path fill="#FFFFFF" d="M301.458,179.65c-0.004-0.876-0.713-1.597-1.592-1.597c-0.879,0.006-1.584,0.721-1.584,1.597
		c0,0.869,0.711,1.585,1.588,1.578C300.747,181.235,301.462,180.52,301.458,179.65z"/>
	<path fill="#FFFFFF" d="M311.663,169.947c0.002-0.877-0.711-1.589-1.588-1.586c-0.881-0.003-1.588,0.707-1.588,1.586
		s0.707,1.592,1.59,1.592C310.952,171.539,311.663,170.826,311.663,169.947z"/>
	<path fill="#FFFFFF" d="M316.815,179.645c0-0.871-0.711-1.592-1.592-1.596c-0.879,0.009-1.584,0.725-1.584,1.596
		c-0.004,0.878,0.703,1.589,1.584,1.589S316.815,180.522,316.815,179.645z"/>
	<path fill="#FFFFFF" d="M316.817,150.559c-0.008-0.873-0.715-1.583-1.594-1.591c-0.879,0-1.584,0.712-1.584,1.591
		c0,0.88,0.705,1.594,1.584,1.593C316.104,152.145,316.815,151.432,316.817,150.559z"/>
	<path fill="#FFFFFF" d="M332.265,174.799c0-0.872-0.709-1.586-1.588-1.591c-0.875,0.005-1.584,0.719-1.588,1.594
		c0,0.874,0.713,1.581,1.592,1.581C331.556,176.383,332.265,175.673,332.265,174.799z"/>
	<path fill="#FFFFFF" d="M332.265,140.863c0-0.878-0.711-1.588-1.584-1.588c-0.879-0.005-1.588,0.71-1.592,1.588
		c0.004,0.875,0.713,1.587,1.588,1.587C331.556,142.452,332.269,141.74,332.265,140.863z"/>
	<path fill="#FFFFFF" d="M337.415,174.799c-0.004-0.872-0.707-1.591-1.588-1.591c-0.877,0.005-1.584,0.719-1.584,1.597
		c0.002,0.868,0.709,1.574,1.584,1.58C336.708,176.383,337.411,175.676,337.415,174.799z"/>
	<path fill="#FFFFFF" d="M157.72,145.706c0-1.216-0.988-2.198-2.213-2.198c-1.209-0.003-2.201,0.982-2.201,2.198
		c0.002,1.222,0.988,2.21,2.209,2.205C156.729,147.913,157.718,146.928,157.72,145.706z"/>
	<path fill="#FFFFFF" d="M168.021,165.103c-0.002-1.219-0.992-2.207-2.205-2.207c-1.219,0.003-2.209,0.988-2.213,2.207
		c0.006,1.215,0.996,2.206,2.211,2.201C167.028,167.309,168.024,166.318,168.021,165.103z"/>
	<path fill="#FFFFFF" d="M193.774,140.863c0-1.217-0.988-2.202-2.203-2.205c-1.221,0-2.207,0.991-2.207,2.205
		c-0.004,1.218,0.984,2.205,2.207,2.205C192.786,143.071,193.776,142.078,193.774,140.863z"/>
	<path fill="#FFFFFF" d="M198.925,160.249c0-1.218-0.988-2.202-2.205-2.2c-1.219,0-2.203,0.988-2.203,2.204
		c0,1.217,0.984,2.204,2.205,2.212C197.937,162.465,198.925,161.475,198.925,160.249z"/>
	<path fill="#FFFFFF" d="M198.925,140.862c-0.004-1.218-0.988-2.201-2.205-2.201c-1.223,0-2.209,0.988-2.203,2.201
		c-0.006,1.219,0.98,2.209,2.203,2.209C197.937,143.068,198.925,142.074,198.925,140.862z"/>
	<path fill="#FFFFFF" d="M209.226,140.863c0-1.214-0.99-2.202-2.205-2.202c-1.219-0.009-2.197,0.984-2.205,2.202
		c0.004,1.218,0.988,2.208,2.207,2.205C208.239,143.068,209.222,142.078,209.226,140.863z"/>
	<path fill="#FFFFFF" d="M229.831,165.103c0-1.223-0.988-2.207-2.209-2.207c-1.219,0-2.205,0.988-2.203,2.207
		c-0.002,1.216,0.982,2.206,2.205,2.201C228.843,167.309,229.831,166.318,229.831,165.103z"/>
	<path fill="#FFFFFF" d="M240.132,145.706c0.002-1.216-0.99-2.201-2.205-2.201c-1.219,0.003-2.205,0.985-2.207,2.201
		c0,1.222,0.988,2.21,2.207,2.207C239.138,147.913,240.134,146.928,240.132,145.706z"/>
	<path fill="#FFFFFF" d="M260.735,160.249c-0.002-1.212-0.99-2.2-2.209-2.2c-1.213-0.002-2.199,0.982-2.203,2.204
		c0.004,1.222,0.986,2.212,2.203,2.212C259.747,162.465,260.731,161.475,260.735,160.249z"/>
	<path fill="#FFFFFF" d="M265.888,179.65c-0.002-1.219-0.992-2.216-2.209-2.216c-1.217,0.007-2.209,0.997-2.203,2.21
		c-0.002,1.221,0.986,2.207,2.203,2.204C264.894,181.849,265.886,180.862,265.888,179.65z"/>
	<path fill="#FFFFFF" d="M302.075,174.799c0-1.214-0.988-2.209-2.205-2.211c-1.221,0.002-2.205,0.997-2.207,2.214
		c0.006,1.21,0.986,2.201,2.207,2.201C301.087,177.003,302.071,176.012,302.075,174.799z"/>
	<path fill="#FFFFFF" d="M312.284,174.799c-0.004-1.214-0.992-2.209-2.209-2.211c-1.219,0.002-2.207,0.994-2.207,2.211
		c-0.002,1.214,0.986,2.204,2.207,2.204C311.292,177.003,312.284,176.012,312.284,174.799z"/>
	<path fill="#FFFFFF" d="M322.581,174.802c0.002-1.22-0.988-2.212-2.205-2.214c-1.215,0.002-2.207,0.994-2.205,2.211
		c0,1.213,0.988,2.204,2.207,2.204C321.593,177.003,322.581,176.013,322.581,174.802z"/>
	<path fill="#FFFFFF" d="M332.882,169.941c0-1.209-0.988-2.197-2.203-2.197c-1.221,0.002-2.205,0.985-2.209,2.203
		c0.004,1.219,0.99,2.204,2.207,2.21C331.896,172.151,332.884,171.165,332.882,169.941z"/>
	<path fill="#FFFFFF" d="M157.72,165.102c-0.002-1.218-0.988-2.206-2.207-2.206s-2.207,0.984-2.207,2.207
		c0,1.215,0.988,2.206,2.205,2.201C156.729,167.309,157.718,166.317,157.72,165.102z"/>
	<path fill="#FFFFFF" d="M157.72,150.56c-0.002-1.219-0.99-2.207-2.207-2.207c-1.215,0-2.207,0.988-2.207,2.207
		c0,1.215,0.986,2.2,2.207,2.2C156.729,152.76,157.72,151.774,157.72,150.56z"/>
	<path fill="#FFFFFF" d="M162.866,165.102c-0.002-1.218-0.988-2.203-2.201-2.206c-1.223,0-2.205,0.988-2.205,2.206
		c0,1.215,0.982,2.202,2.205,2.207C161.882,167.304,162.866,166.32,162.866,165.102z"/>
	<path fill="#FFFFFF" d="M162.868,155.4c-0.002-1.211-0.99-2.195-2.203-2.195c-1.223,0-2.205,0.988-2.205,2.197
		c0,1.222,0.984,2.206,2.201,2.206S162.864,156.622,162.868,155.4z"/>
	<path fill="#FFFFFF" d="M162.868,145.708c-0.002-1.214-0.988-2.202-2.203-2.206c-1.223,0.004-2.201,0.988-2.205,2.206
		c-0.002,1.22,0.982,2.205,2.205,2.203C161.882,147.911,162.866,146.932,162.868,145.708z"/>
	<path fill="#FFFFFF" d="M168.022,160.25c-0.002-1.213-0.99-2.203-2.211-2.201c-1.215,0-2.203,0.988-2.207,2.205
		c0.004,1.217,0.992,2.212,2.207,2.203C167.028,162.466,168.021,161.477,168.022,160.25z"/>
	<path fill="#FFFFFF" d="M168.021,140.863c-0.004-1.218-0.992-2.206-2.213-2.202c-1.213-0.004-2.203,0.984-2.199,2.202
		c0,1.211,0.986,2.208,2.207,2.205C167.028,143.068,168.021,142.081,168.021,140.863z"/>
	<path fill="#FFFFFF" d="M173.173,160.249c-0.006-1.212-0.99-2.2-2.209-2.2c-1.217,0-2.207,0.988-2.203,2.2
		c-0.002,1.221,0.982,2.208,2.199,2.216C172.185,162.465,173.167,161.47,173.173,160.249z"/>
	<path fill="#FFFFFF" d="M178.319,160.254c0-1.217-0.984-2.198-2.207-2.205c-1.213,0-2.203,0.982-2.203,2.201
		c-0.004,1.221,0.986,2.216,2.203,2.207C177.337,162.457,178.323,161.471,178.319,160.254z"/>
	<path fill="#FFFFFF" d="M219.522,155.402c0.002-1.211-0.982-2.201-2.199-2.199c-1.219,0-2.209,0.988-2.209,2.199
		c0,1.222,0.986,2.21,2.207,2.21C218.54,157.607,219.526,156.624,219.522,155.402z"/>
	<path fill="#FFFFFF" d="M224.675,165.103c0-1.219-0.984-2.204-2.199-2.207c-1.219,0.003-2.207,0.988-2.207,2.207
		c-0.002,1.218,0.988,2.206,2.203,2.201C223.69,167.309,224.675,166.32,224.675,165.103z"/>
	<path fill="#FFFFFF" d="M229.831,155.398c0-1.209-0.992-2.193-2.207-2.197c-1.221,0.004-2.205,0.984-2.207,2.201
		c0,1.22,0.986,2.21,2.205,2.206C228.847,157.608,229.831,156.624,229.831,155.398z"/>
	<path fill="#FFFFFF" d="M234.979,155.402c0-1.215-0.984-2.199-2.207-2.199c-1.217-0.002-2.203,0.982-2.197,2.197
		c-0.006,1.217,0.979,2.207,2.195,2.212C233.991,157.607,234.979,156.624,234.979,155.402z"/>
	<path fill="#FFFFFF" d="M234.978,150.562c0.002-1.225-0.984-2.21-2.203-2.21c-1.221-0.002-2.203,0.988-2.199,2.207
		c-0.004,1.22,0.979,2.2,2.197,2.2S234.981,151.774,234.978,150.562z"/>
	<path fill="#FFFFFF" d="M255.583,145.705c-0.002-1.215-0.988-2.2-2.205-2.2s-2.203,0.985-2.203,2.201
		c0,1.222,0.988,2.207,2.203,2.207C254.595,147.918,255.583,146.928,255.583,145.705z"/>
	<path fill="#FFFFFF" d="M260.733,174.799c0-1.214-0.986-2.209-2.207-2.211c-1.215,0.002-2.203,0.994-2.203,2.211
		c0,1.213,0.992,2.199,2.199,2.204C259.747,176.998,260.735,176.012,260.733,174.799z"/>
	<path fill="#FFFFFF" d="M260.733,169.947c0-1.215-0.988-2.197-2.205-2.205c-1.217,0-2.205,0.988-2.205,2.205
		c0.004,1.221,0.99,2.206,2.205,2.206C259.745,172.153,260.735,171.166,260.733,169.947z"/>
	<path fill="#FFFFFF" d="M260.733,155.406c0.002-1.221-0.984-2.205-2.207-2.203c-1.213-0.002-2.203,0.984-2.203,2.199
		c0,1.222,0.988,2.205,2.203,2.21C259.745,157.607,260.733,156.621,260.733,155.406z"/>
	<path fill="#FFFFFF" d="M260.733,150.56c0-1.222-0.988-2.207-2.209-2.207c-1.211,0-2.201,0.988-2.197,2.207
		c0,1.215,0.986,2.199,2.199,2.2C259.745,152.76,260.733,151.774,260.733,150.56z"/>
	<path fill="#FFFFFF" d="M265.888,174.807c0-1.219-0.99-2.221-2.207-2.219c-1.219,0.002-2.209,0.997-2.209,2.219
		c0.004,1.205,0.99,2.193,2.209,2.193C264.896,177.004,265.882,176.02,265.888,174.807z"/>
	<path fill="#FFFFFF" d="M265.888,160.25c0-1.211-0.99-2.2-2.209-2.203c-1.217,0.003-2.205,0.992-2.205,2.203
		c-0.002,1.227,0.988,2.216,2.205,2.208C264.897,162.466,265.886,161.477,265.888,160.25z"/>
	<path fill="#FFFFFF" d="M265.888,140.863c0-1.212-0.992-2.202-2.209-2.206c-1.217,0.004-2.207,0.992-2.207,2.202
		c0,1.215,0.99,2.209,2.209,2.212C264.896,143.068,265.888,142.078,265.888,140.863z"/>
	<path fill="#FFFFFF" d="M271.034,160.249c-0.002-1.212-0.988-2.2-2.209-2.197c-1.215-0.003-2.203,0.985-2.199,2.197
		c0,1.228,0.984,2.208,2.203,2.208C270.046,162.466,271.034,161.47,271.034,160.249z"/>
	<path fill="#FFFFFF" d="M276.185,179.642c0-1.213-0.982-2.209-2.207-2.203c-1.211-0.006-2.201,0.989-2.203,2.208
		c0.002,1.213,0.99,2.202,2.207,2.202C275.2,181.852,276.187,180.859,276.185,179.642z"/>
	<path fill="#FFFFFF" d="M291.638,160.249c0-1.218-0.988-2.2-2.201-2.2c-1.219,0-2.207,0.982-2.207,2.204
		c0,1.217,0.988,2.204,2.203,2.212C290.651,162.457,291.638,161.47,291.638,160.249z"/>
	<path fill="#FFFFFF" d="M291.638,150.562c0-1.222-0.984-2.21-2.203-2.21s-2.201,0.985-2.205,2.21c0,1.212,0.988,2.197,2.205,2.197
		S291.636,151.779,291.638,150.562z"/>
	<path fill="#FFFFFF" d="M296.792,165.102c-0.002-1.218-0.99-2.206-2.205-2.206c-1.223,0-2.207,0.988-2.207,2.206
		c0,1.219,0.986,2.202,2.207,2.207C295.802,167.304,296.79,166.318,296.792,165.102z"/>
	<path fill="#FFFFFF" d="M296.792,145.706c0-1.217-0.992-2.201-2.207-2.198c-1.219-0.003-2.205,0.982-2.203,2.198
		c-0.006,1.221,0.982,2.207,2.205,2.207C295.802,147.91,296.79,146.923,296.792,145.706z"/>
	<path fill="#FFFFFF" d="M312.282,145.706c0.002-1.216-0.99-2.206-2.211-2.198c-1.211-0.008-2.203,0.982-2.203,2.198
		c-0.002,1.222,0.992,2.207,2.209,2.205C311.292,147.913,312.284,146.928,312.282,145.706z"/>
	<path fill="#FFFFFF" d="M317.433,155.398c-0.002-1.209-0.994-2.193-2.209-2.197c-1.215,0.004-2.205,0.988-2.203,2.199
		c0,1.224,0.984,2.212,2.201,2.208C316.442,157.612,317.433,156.624,317.433,155.398z"/>
	<path fill="#FFFFFF" d="M317.433,140.862c-0.002-1.218-0.992-2.198-2.209-2.201c-1.217-0.004-2.203,0.988-2.203,2.201
		c0,1.219,0.984,2.206,2.203,2.209C316.442,143.068,317.431,142.078,317.433,140.862z"/>
	<path fill="#FFFFFF" d="M322.583,179.645c-0.002-1.216-0.992-2.203-2.207-2.213c-1.217,0.01-2.205,1-2.207,2.219
		c0,1.212,0.99,2.201,2.207,2.201C321.591,181.849,322.583,180.865,322.583,179.645z"/>
	<path fill="#FFFFFF" d="M322.581,160.253c0.002-1.216-0.986-2.204-2.203-2.204c-1.221,0-2.211,0.988-2.211,2.204
		c0.002,1.222,0.99,2.212,2.211,2.212C321.591,162.465,322.581,161.475,322.581,160.253z"/>
	<path fill="#FFFFFF" d="M322.581,140.863c0-1.216-0.988-2.202-2.207-2.201c-1.213-0.001-2.203,0.982-2.207,2.201
		c0.002,1.21,0.994,2.205,2.209,2.208C321.593,143.068,322.583,142.073,322.581,140.863z"/>
	<path fill="#FFFFFF" d="M327.729,179.645c0-1.217-0.982-2.212-2.201-2.209c-1.219-0.003-2.203,0.992-2.203,2.206
		c0,1.224,0.98,2.207,2.205,2.207C326.747,181.849,327.729,180.859,327.729,179.645z"/>
	<path fill="#FFFFFF" d="M327.729,160.25c0-1.213-0.982-2.201-2.201-2.201s-2.205,0.988-2.203,2.201
		c-0.004,1.227,0.984,2.216,2.205,2.207C326.745,162.466,327.729,161.471,327.729,160.25z"/>
	<path fill="#FFFFFF" d="M332.884,160.253c0.002-1.222-0.988-2.204-2.207-2.204s-2.201,0.988-2.207,2.204
		c0.006,1.217,0.99,2.212,2.209,2.212C331.896,162.457,332.882,161.475,332.884,160.253z"/>
	<path fill="#FFFFFF" d="M338.03,165.102c0-1.218-0.979-2.206-2.201-2.206c-1.217,0-2.209,0.988-2.205,2.206
		c-0.002,1.219,0.988,2.207,2.207,2.207S338.032,166.316,338.03,165.102z"/>
	<path fill="#FFFFFF" d="M162.446,174.799c0-0.987-0.795-1.783-1.781-1.788c-0.99,0.005-1.785,0.801-1.785,1.791
		c-0.004,0.98,0.797,1.783,1.785,1.781C161.651,176.583,162.45,175.782,162.446,174.799z"/>
	<path fill="#FFFFFF" d="M172.753,165.102c-0.002-0.986-0.797-1.786-1.789-1.784c-0.986-0.002-1.783,0.8-1.783,1.784
		c0,0.985,0.795,1.784,1.783,1.784C171.954,166.886,172.753,166.087,172.753,165.102z"/>
	<path fill="#FFFFFF" d="M177.899,140.863c0-0.982-0.797-1.786-1.787-1.786c-0.982,0-1.787,0.804-1.785,1.786
		c0.004,0.986,0.803,1.789,1.785,1.789C177.103,142.647,177.899,141.848,177.899,140.863z"/>
	<path fill="#FFFFFF" d="M198.505,174.798c0-0.987-0.799-1.788-1.785-1.784c-0.992-0.004-1.787,0.797-1.787,1.784
		c0,0.982,0.795,1.785,1.787,1.785C197.706,176.583,198.505,175.783,198.505,174.798z"/>
	<path fill="#FFFFFF" d="M219.106,150.562c0-0.988-0.799-1.791-1.783-1.791s-1.785,0.803-1.789,1.791
		c0,0.979,0.805,1.783,1.791,1.777C218.308,152.346,219.106,151.542,219.106,150.562z"/>
	<circle fill="#FFFFFF" cx="268.829" cy="140.862" r="1.787"/>
	<path fill="#FFFFFF" d="M280.921,140.863c-0.006-0.98-0.807-1.786-1.787-1.786c-0.986,0-1.789,0.806-1.791,1.786
		c-0.002,0.992,0.803,1.789,1.789,1.787C280.122,142.65,280.921,141.85,280.921,140.863z"/>
	<path fill="#FFFFFF" d="M291.22,165.102c0-0.984-0.799-1.784-1.785-1.784c-0.986-0.002-1.789,0.8-1.785,1.784
		c-0.004,0.985,0.801,1.788,1.785,1.784C290.417,166.89,291.222,166.088,291.22,165.102z"/>
	<path fill="#FFFFFF" d="M296.37,155.402c0.002-0.986-0.799-1.782-1.783-1.782c-0.99,0-1.787,0.796-1.787,1.782
		c-0.004,0.99,0.797,1.786,1.785,1.79C295.571,157.188,296.366,156.393,296.37,155.402z"/>
	<path fill="#FFFFFF" d="M317.011,145.706c0-0.985-0.801-1.78-1.787-1.78c-0.984,0-1.783,0.793-1.787,1.783
		c0.006,0.986,0.803,1.783,1.787,1.785C316.21,147.494,317.015,146.698,317.011,145.706z"/>
	<path fill="#FFFFFF" d="M327.313,140.863c-0.006-0.985-0.795-1.786-1.791-1.786c-0.982,0-1.777,0.801-1.773,1.786
		c-0.004,0.986,0.789,1.784,1.777,1.789C326.515,142.655,327.313,141.85,327.313,140.863z"/>
	<path fill="#FFFFFF" d="M157.3,169.947c0.004-0.988-0.801-1.784-1.789-1.785c-0.988,0-1.787,0.797-1.787,1.785
		c0.006,0.988,0.803,1.789,1.789,1.789C156.501,171.732,157.3,170.936,157.3,169.947z"/>
	<path fill="#FFFFFF" d="M162.45,150.562c0.002-0.988-0.799-1.795-1.789-1.795c-0.986,0-1.783,0.807-1.787,1.795
		c0.004,0.981,0.803,1.777,1.791,1.783C161.651,152.34,162.448,151.544,162.45,150.562z"/>
	<path fill="#FFFFFF" d="M183.056,150.562c0.002-0.988-0.801-1.795-1.795-1.795c-0.982,0-1.783,0.807-1.779,1.795
		c-0.004,0.977,0.797,1.777,1.783,1.783C182.255,152.34,183.058,151.539,183.056,150.562z"/>
	<path fill="#FFFFFF" d="M193.644,169.947c-0.002-1.144-0.928-2.073-2.072-2.073c-1.15,0-2.08,0.93-2.078,2.073
		c0,1.148,0.93,2.073,2.076,2.073S193.64,171.096,193.644,169.947z"/>
	<path fill="#FFFFFF" d="M198.503,165.102c0.002-0.984-0.797-1.786-1.783-1.784c-0.99-0.002-1.787,0.798-1.787,1.784
		s0.799,1.784,1.787,1.784S198.505,166.088,198.503,165.102z"/>
	<path fill="#FFFFFF" d="M208.81,174.799c-0.004-0.987-0.801-1.788-1.787-1.788c-0.984,0.005-1.787,0.801-1.789,1.788
		c0.002,0.983,0.801,1.786,1.787,1.784C208.007,176.585,208.81,175.782,208.81,174.799z"/>
	<path fill="#FFFFFF" d="M219.106,165.105c-0.004-0.99-0.799-1.79-1.783-1.788c-0.986-0.002-1.789,0.798-1.789,1.784
		s0.807,1.784,1.785,1.788C218.312,166.886,219.106,166.087,219.106,165.105z"/>
	<path fill="#FFFFFF" d="M224.259,160.254c0-0.985-0.797-1.791-1.785-1.791s-1.787,0.811-1.789,1.787
		c0.002,0.991,0.807,1.791,1.789,1.791C223.458,162.041,224.259,161.246,224.259,160.254z"/>
	<path fill="#FFFFFF" d="M244.862,174.799c0-0.987-0.799-1.788-1.785-1.788c-0.988,0-1.787,0.801-1.781,1.788
		c-0.006,0.986,0.797,1.782,1.781,1.786C244.063,176.585,244.862,175.78,244.862,174.799z"/>
	<path fill="#FFFFFF" d="M244.862,145.706c0-0.985-0.797-1.781-1.781-1.785c-0.988,0-1.789,0.8-1.789,1.785
		c0,0.993,0.801,1.787,1.789,1.787C244.065,147.493,244.862,146.699,244.862,145.706z"/>
	<path fill="#FFFFFF" d="M255.165,174.799c-0.002-0.987-0.801-1.788-1.787-1.788s-1.787,0.801-1.785,1.788
		c0,0.981,0.797,1.786,1.785,1.786C254.364,176.581,255.163,175.78,255.165,174.799z"/>
	<path fill="#FFFFFF" d="M255.165,160.254c-0.002-0.985-0.801-1.791-1.787-1.792c-0.984,0.001-1.785,0.807-1.785,1.798
		c0,0.981,0.799,1.781,1.785,1.784C254.364,162.041,255.163,161.241,255.165,160.254z"/>
	<path fill="#FFFFFF" d="M260.312,165.102c-0.002-0.984-0.797-1.783-1.785-1.786c-0.984,0-1.785,0.802-1.781,1.786
		c-0.002,0.986,0.797,1.786,1.781,1.786S260.312,166.087,260.312,165.102z"/>
	<path fill="#FFFFFF" d="M260.313,145.706c0-0.985-0.799-1.78-1.785-1.782c-0.984,0-1.787,0.801-1.787,1.782
		c0.002,0.992,0.803,1.788,1.787,1.786C259.511,147.494,260.315,146.698,260.313,145.706z"/>
	<path fill="#FFFFFF" d="M265.466,155.402c0-0.98-0.801-1.782-1.787-1.777c-0.986-0.005-1.785,0.791-1.785,1.777
		c0.002,0.99,0.801,1.786,1.785,1.786C264.665,157.192,265.468,156.389,265.466,155.402z"/>
	<path fill="#FFFFFF" d="M270.612,174.799c0.006-0.991-0.795-1.793-1.785-1.788c-0.982,0-1.783,0.801-1.783,1.791
		c0,0.979,0.801,1.783,1.783,1.783C269.817,176.585,270.612,175.78,270.612,174.799z"/>
	<path fill="#FFFFFF" d="M280.919,155.4c0.002-0.983-0.797-1.78-1.783-1.78c-0.99,0-1.793,0.796-1.793,1.782
		c0.004,0.986,0.803,1.786,1.793,1.786C280.122,157.188,280.921,156.387,280.919,155.4z"/>
	<path fill="#FFFFFF" d="M291.22,145.709c0-0.985-0.799-1.785-1.785-1.783c-0.986-0.002-1.789,0.793-1.785,1.78
		c-0.006,0.995,0.799,1.788,1.785,1.786C290.417,147.502,291.22,146.701,291.22,145.709z"/>
	<path fill="#FFFFFF" d="M296.37,174.798c-0.006-0.987-0.793-1.788-1.783-1.782c-0.992,0-1.787,0.795-1.783,1.782
		c-0.004,0.982,0.793,1.787,1.783,1.783C295.571,176.581,296.366,175.783,296.37,174.798z"/>
	<path fill="#FFFFFF" d="M317.013,174.799c0-0.987-0.801-1.788-1.785-1.788c-0.99,0-1.787,0.801-1.787,1.788
		c-0.004,0.986,0.797,1.786,1.783,1.784C316.212,176.583,317.013,175.782,317.013,174.799z"/>
	<path fill="#FFFFFF" d="M317.013,160.25c0-0.979-0.801-1.781-1.789-1.788c-0.988,0.007-1.787,0.807-1.783,1.792
		c0,0.987,0.797,1.787,1.781,1.79C316.21,162.044,317.013,161.246,317.013,160.25z"/>
	<path fill="#FFFFFF" d="M327.308,155.4c0.006-0.983-0.793-1.78-1.783-1.78c-0.984,0-1.779,0.797-1.779,1.782
		c0,0.984,0.795,1.79,1.785,1.786C326.515,157.188,327.31,156.393,327.308,155.4z"/>
	<path fill="#FFFFFF" d="M332.462,179.646c-0.002-0.99-0.799-1.79-1.781-1.79c-0.992,0-1.791,0.8-1.787,1.79
		c0,0.98,0.797,1.783,1.783,1.783S332.462,180.63,332.462,179.646z"/>
	<path fill="#FFFFFF" d="M332.462,165.102c0.002-0.984-0.797-1.786-1.783-1.784c-0.988-0.002-1.787,0.798-1.789,1.784
		c0.002,0.985,0.797,1.784,1.789,1.784C331.663,166.886,332.464,166.087,332.462,165.102z"/>
	<path fill="#FFFFFF" d="M337.614,169.945c0-0.983-0.799-1.776-1.783-1.783c-0.988,0-1.791,0.8-1.791,1.785
		c0.006,0.988,0.803,1.79,1.789,1.785C336.819,171.732,337.614,170.938,337.614,169.945z"/>
	<path fill="#FFFFFF" d="M337.614,160.25c0-0.981-0.803-1.779-1.787-1.787c-0.984,0-1.783,0.806-1.783,1.791
		c-0.004,0.992,0.801,1.787,1.783,1.787C336.819,162.039,337.614,161.246,337.614,160.25z"/>
	<path fill="#FFFFFF" d="M162.647,140.887c0.004-1.098-0.889-1.982-1.982-1.986c-1.1,0.004-1.984,0.895-1.98,1.982
		c0,1.101,0.883,1.99,1.98,1.99C161.759,142.873,162.646,141.983,162.647,140.887z"/>
	<path fill="#FFFFFF" d="M183.251,160.279c0-1.101-0.885-1.989-1.988-1.989c-1.096,0.003-1.98,0.892-1.984,1.989
		c0.004,1.098,0.893,1.982,1.984,1.982C182.366,162.262,183.251,161.377,183.251,160.279z"/>
	<path fill="#FFFFFF" d="M198.702,169.973c0.002-1.095-0.887-1.985-1.982-1.985c-1.1,0-1.982,0.891-1.982,1.991
		c0.002,1.092,0.885,1.979,1.982,1.982C197.812,171.961,198.702,171.07,198.702,169.973z"/>
	<path fill="#FFFFFF" d="M198.704,145.729c0-1.096-0.889-1.98-1.984-1.98c-1.098,0-1.982,0.895-1.98,1.98
		c0,1.103,0.881,1.995,1.984,1.986C197.812,147.718,198.704,146.834,198.704,145.729z"/>
	<path fill="#FFFFFF" d="M234.761,165.123c0-1.094-0.889-1.98-1.988-1.983c-1.096,0.003-1.979,0.89-1.979,1.987
		c-0.004,1.097,0.883,1.986,1.977,1.986C233.872,167.113,234.757,166.223,234.761,165.123z"/>
	<path fill="#FFFFFF" d="M255.36,169.974c0.002-1.099-0.887-1.985-1.977-1.99c-1.102,0.011-1.99,0.892-1.99,1.99
		c-0.002,1.098,0.887,1.989,1.98,1.984C254.478,171.958,255.362,171.066,255.36,169.974z"/>
	<path fill="#FFFFFF" d="M291.421,140.883c0-1.088-0.893-1.981-1.984-1.984c-1.098,0.006-1.986,0.896-1.988,1.988
		c0.002,1.097,0.891,1.989,1.986,1.986C290.528,142.876,291.421,141.983,291.421,140.883z"/>
	<path fill="#FFFFFF" d="M312.06,150.58c0.002-1.095-0.887-1.982-1.988-1.979c-1.094-0.004-1.982,0.884-1.982,1.979
		c0,1.092,0.893,1.984,1.988,1.984S312.058,151.675,312.06,150.58z"/>
	<path fill="#FFFFFF" d="M322.358,155.43c0.002-1.096-0.887-1.985-1.986-1.985c-1.092,0.004-1.984,0.89-1.979,1.982
		c-0.004,1.102,0.887,1.985,1.98,1.988C321.472,157.415,322.358,156.53,322.358,155.43z"/>
	<path fill="#FFFFFF" d="M327.513,174.821c-0.004-1.093-0.891-1.987-1.984-1.981c-1.098,0.004-1.984,0.884-1.98,1.981
		c-0.004,1.093,0.883,1.989,1.979,1.983C326.626,176.805,327.509,175.914,327.513,174.821z"/>
	<path fill="#FFFFFF" d="M157.495,174.823c0-1.1-0.887-1.983-1.98-1.989c-1.094,0-1.984,0.89-1.988,1.989
		c0,1.091,0.891,1.987,1.984,1.987C156.608,176.811,157.495,175.913,157.495,174.823z"/>
	<path fill="#FFFFFF" d="M157.495,160.279c0-1.098-0.887-1.988-1.982-1.988c-1.096,0.002-1.986,0.891-1.986,1.985
		c0,1.101,0.891,1.982,1.986,1.982C156.608,162.266,157.497,161.377,157.495,160.279z"/>
	<path fill="#FFFFFF" d="M183.251,145.733c0-1.098-0.885-1.982-1.986-1.982c-1.098,0-1.982,0.885-1.982,1.982
		s0.889,1.984,1.98,1.981C182.364,147.718,183.251,146.831,183.251,145.733z"/>
	<path fill="#FFFFFF" d="M193.552,160.276c0.004-1.095-0.885-1.983-1.98-1.985c-1.102,0-1.988,0.896-1.984,1.985
		c-0.004,1.101,0.883,1.989,1.982,1.982C192.667,162.259,193.556,161.377,193.552,160.276z"/>
	<path fill="#FFFFFF" d="M209.003,145.733c0.002-1.098-0.887-1.982-1.984-1.982c-1.094-0.005-1.979,0.887-1.979,1.982
		c0,1.102,0.885,1.981,1.982,1.983C208.116,147.717,209.003,146.828,209.003,145.733z"/>
	<path fill="#FFFFFF" d="M219.304,169.977c-0.002-1.099-0.889-1.984-1.98-1.984c-1.1,0-1.986,0.886-1.99,1.98
		c0.004,1.1,0.895,1.988,1.988,1.985C218.415,171.958,219.302,171.07,219.304,169.977z"/>
	<path fill="#FFFFFF" d="M224.456,155.427c-0.002-1.093-0.885-1.982-1.979-1.982c-1.1,0-1.994,0.89-1.986,1.982
		c-0.006,1.104,0.885,1.981,1.982,1.988C223.571,157.412,224.452,156.53,224.456,155.427z"/>
	<path fill="#FFFFFF" d="M245.062,140.883c0-1.088-0.889-1.979-1.98-1.979c-1.105,0-1.986,0.887-1.986,1.979
		c0,1.097,0.885,1.991,1.982,1.991C244.173,142.874,245.058,141.986,245.062,140.883z"/>
	<path fill="#FFFFFF" d="M255.362,155.427c0-1.09-0.891-1.979-1.984-1.981c-1.092,0-1.982,0.889-1.984,1.981
		c0.002,1.102,0.887,1.985,1.984,1.985C254.478,157.415,255.362,156.53,255.362,155.427z"/>
	<path fill="#FFFFFF" d="M260.515,140.883c-0.006-1.088-0.889-1.979-1.988-1.984c-1.09,0.003-1.982,0.896-1.982,1.988
		c0,1.097,0.893,1.986,1.982,1.986C259.622,142.876,260.517,141.983,260.515,140.883z"/>
	<path fill="#FFFFFF" d="M270.813,155.427c0-1.09-0.887-1.981-1.986-1.981c-1.094-0.003-1.982,0.892-1.984,1.981
		c0.002,1.104,0.887,1.985,1.984,1.985C269.927,157.412,270.813,156.53,270.813,155.427z"/>
	<path fill="#FFFFFF" d="M275.968,174.821c0-1.098-0.887-1.987-1.988-1.985c-1.096,0.004-1.98,0.888-1.98,1.985
		c0,1.093,0.885,1.988,1.977,1.988C275.075,176.81,275.968,175.914,275.968,174.821z"/>
	<path fill="#FFFFFF" d="M275.962,155.43c0.006-1.101-0.881-1.984-1.984-1.984c-1.092,0-1.977,0.892-1.979,1.981
		c-0.004,1.102,0.887,1.985,1.982,1.985C275.081,157.412,275.968,156.525,275.962,155.43z"/>
	<path fill="#FFFFFF" d="M291.417,174.828c0.004-1.104-0.889-1.984-1.982-1.994c-1.098,0.01-1.984,0.89-1.984,1.989
		c-0.002,1.096,0.889,1.981,1.984,1.987C290.528,176.805,291.425,175.913,291.417,174.828z"/>
	<path fill="#FFFFFF" d="M296.571,150.582c0.002-1.097-0.893-1.984-1.984-1.984c-1.098,0-1.986,0.888-1.986,1.984
		c0.004,1.093,0.889,1.982,1.986,1.982C295.681,152.563,296.569,151.681,296.571,150.582z"/>
	<path fill="#FFFFFF" d="M296.569,169.977c0.002-1.102-0.883-1.988-1.984-1.988c-1.098,0-1.984,0.89-1.984,1.985
		c0.004,1.093,0.889,1.987,1.986,1.984C295.687,171.958,296.569,171.07,296.569,169.977z"/>
	<path fill="#FFFFFF" d="M312.06,155.427c0.002-1.093-0.889-1.981-1.984-1.981c-1.098,0-1.986,0.892-1.984,1.984
		c-0.002,1.099,0.887,1.982,1.984,1.982C311.171,157.408,312.06,156.53,312.06,155.427z"/>
	<path fill="#FFFFFF" d="M332.663,155.427c0.004-1.09-0.889-1.981-1.982-1.984c-1.104,0.003-1.986,0.892-1.988,1.984
		c0.002,1.102,0.887,1.985,1.984,1.988C331.771,157.412,332.661,156.53,332.663,155.427z"/>
	<path fill="#FFFFFF" d="M337.81,145.733c0-1.098-0.883-1.982-1.982-1.979c-1.096-0.008-1.98,0.882-1.98,1.979
		s0.885,1.981,1.984,1.981C336.927,147.715,337.815,146.831,337.81,145.733z"/>
</g>
</svg>
