<?xml version="1.0" encoding="utf-8"?>
<!-- Generator: Adobe Illustrator 16.0.0, SVG Export Plug-In . SVG Version: 6.00 Build 0)  -->
<!DOCTYPE svg PUBLIC "-//W3C//DTD SVG 1.1//EN" "http://www.w3.org/Graphics/SVG/1.1/DTD/svg11.dtd">
<svg version="1.1" preserveAspectRatio="none" id="Layer_1" xmlns="http://www.w3.org/2000/svg" xmlns:xlink="http://www.w3.org/1999/xlink" x="0px" y="0px"
	 width="155.208px" height="155.204px" viewBox="0 0 155.208 155.204" enable-background="new 0 0 155.208 155.204"
	 xml:space="preserve">
<path fill="#55637C" d="M112.421,77.602c0-19.228-15.591-34.814-34.819-34.814c-19.224,0-34.814,15.586-34.814,34.814
	c0,19.229,15.591,34.815,34.814,34.815C96.83,112.417,112.421,96.83,112.421,77.602z"/>
<g>
	<g>
		<path fill="#55637C" d="M77.602,155.204C34.811,155.204,0,120.389,0,77.602C0,34.806,34.811,0,77.602,0
			c42.792,0,77.606,34.806,77.606,77.602C155.208,120.389,120.393,155.204,77.602,155.204z M77.602,2.169
			c-41.591,0-75.428,33.836-75.428,75.432c0,41.588,33.836,75.424,75.428,75.424c41.592,0,75.429-33.836,75.429-75.424
			C153.03,36.006,119.193,2.169,77.602,2.169z"/>
	</g>
</g>
<g>
	<g>
		<path fill="#55637C" d="M77.602,143.216c-36.18,0-65.609-29.438-65.609-65.614c0-36.185,29.429-65.614,65.609-65.614
			c36.181,0,65.614,29.429,65.614,65.614C143.216,113.778,113.782,143.216,77.602,143.216z M77.602,29.395
			c-26.579,0-48.202,21.627-48.202,48.207c0,26.58,21.623,48.207,48.202,48.207c26.584,0,48.207-21.627,48.207-48.207
			C125.809,51.022,104.186,29.395,77.602,29.395z"/>
	</g>
</g>
</svg>
