<?xml version="1.0" encoding="utf-8"?>
<!-- Generator: Adobe Illustrator 16.0.0, SVG Export Plug-In . SVG Version: 6.00 Build 0)  -->
<!DOCTYPE svg PUBLIC "-//W3C//DTD SVG 1.1//EN" "http://www.w3.org/Graphics/SVG/1.1/DTD/svg11.dtd">
<svg version="1.1" preserveAspectRatio="none" id="Layer_1" xmlns="http://www.w3.org/2000/svg" xmlns:xlink="http://www.w3.org/1999/xlink" x="0px" y="0px"
	 width="157.997px" height="157.997px" viewBox="0 0 157.997 157.997" enable-background="new 0 0 157.997 157.997"
	 xml:space="preserve">
<g>
	<path fill="#B0D960" d="M53.389,82.037c-5.792,2.028-11.503,4.124-17.146,6.294c-5.643,2.171-11.36,3.689-17.145,4.558H16.06
		c-4.341,0-8.105-1.152-11.286-3.473C1.587,87.104,0,83.631,0,78.999c0-4.626,1.587-8.098,4.774-10.417
		c3.181-2.313,6.945-3.473,11.286-3.473h3.039c5.785,0.868,11.502,2.387,17.145,4.558c5.643,2.17,11.354,4.272,17.146,6.294V82.037z
		 M58.598,62.938c-3.473-1.736-7.528-3.54-12.154-5.426c-4.632-1.878-8.973-4.049-13.021-6.511c-4.056-2.455-7.454-5.134-10.2-8.03
		c-2.754-2.889-4.124-6.361-4.124-10.417c0-3.473,1.37-6.579,4.124-9.332c2.747-2.747,5.859-4.124,9.332-4.124
		c3.757,0,7.162,1.377,10.2,4.124c3.039,2.753,5.711,6.226,8.03,10.417c2.312,4.198,4.483,8.539,6.511,13.021
		c2.021,4.49,3.907,8.465,5.643,11.938L58.598,62.938z M62.938,99.399c-1.736,3.473-3.622,7.528-5.643,12.154
		c-2.028,4.632-4.198,8.973-6.511,13.021c-2.319,4.056-4.992,7.453-8.03,10.2c-3.038,2.754-6.443,4.124-10.2,4.124
		c-3.473,0-6.585-1.37-9.332-4.124c-2.754-2.747-4.124-5.859-4.124-9.332c0-3.758,1.37-7.162,4.124-10.2
		c2.747-3.039,6.145-5.711,10.2-8.03c4.049-2.312,8.39-4.483,13.021-6.511c4.625-2.021,8.681-3.907,12.154-5.643L62.938,99.399z
		 M75.96,53.39c-1.736-5.785-3.764-11.503-6.077-17.146c-2.32-5.643-3.907-11.354-4.775-17.146v-3.038
		c0-4.341,1.153-8.098,3.473-11.285C70.894,1.594,74.366,0,78.999,0c4.625,0,8.098,1.594,10.417,4.775
		c2.312,3.188,3.472,6.944,3.472,11.285v3.038c-0.868,5.792-2.462,11.503-4.774,17.146c-2.32,5.643-4.341,11.36-6.077,17.146H75.96z
		 M82.037,104.608c2.021,5.792,4.124,11.503,6.294,17.146s3.689,11.36,4.558,17.146v3.038c0,4.341-1.16,8.104-3.472,11.285
		c-2.32,3.188-5.792,4.774-10.417,4.774c-4.632,0-8.105-1.587-10.417-4.774c-2.319-3.181-3.473-6.944-3.473-11.285v-3.038
		c0.868-5.785,2.388-11.503,4.558-17.146c2.17-5.643,4.266-11.354,6.294-17.146H82.037z M95.059,58.599
		c1.736-3.473,3.54-7.447,5.426-11.938c1.878-4.482,4.049-8.823,6.511-13.021c2.455-4.191,5.134-7.664,8.03-10.417
		c2.889-2.747,6.361-4.124,10.417-4.124c3.472,0,6.579,1.377,9.332,4.124c2.747,2.753,4.124,5.859,4.124,9.332
		c0,4.056-1.377,7.528-4.124,10.417c-2.753,2.896-6.226,5.575-10.417,8.03c-4.198,2.462-8.539,4.633-13.021,6.511
		c-4.49,1.886-8.464,3.689-11.937,5.426L95.059,58.599z M99.399,95.06c3.473,1.735,7.447,3.621,11.937,5.643
		c4.483,2.027,8.823,4.198,13.021,6.511c4.191,2.319,7.664,4.991,10.417,8.03c2.747,3.038,4.124,6.442,4.124,10.2
		c0,3.473-1.377,6.585-4.124,9.332c-2.753,2.754-5.86,4.124-9.332,4.124c-4.056,0-7.528-1.37-10.417-4.124
		c-2.896-2.747-5.575-6.145-8.03-10.2c-2.462-4.049-4.632-8.39-6.511-13.021c-1.886-4.626-3.689-8.682-5.426-12.154L99.399,95.06z
		 M104.608,75.961c5.785-2.021,11.502-4.124,17.145-6.294c5.643-2.171,11.354-3.689,17.146-4.558h3.039
		c4.34,0,8.098,1.159,11.285,3.473c3.181,2.319,4.775,5.791,4.775,10.417c0,4.632-1.594,8.104-4.775,10.417
		c-3.188,2.32-6.945,3.473-11.285,3.473h-3.039c-5.792-0.868-11.502-2.387-17.146-4.558c-5.643-2.17-11.36-4.266-17.145-6.294
		V75.961z"/>
</g>
<g id="_x3C_Slice_x3E__8_">
	<rect x="-11.428" y="-10.61" fill="none" width="180.858" height="180.857"/>
</g>
</svg>
