<?xml version="1.0" encoding="utf-8"?>
<!-- Generator: Adobe Illustrator 16.0.0, SVG Export Plug-In . SVG Version: 6.00 Build 0)  -->
<!DOCTYPE svg PUBLIC "-//W3C//DTD SVG 1.1//EN" "http://www.w3.org/Graphics/SVG/1.1/DTD/svg11.dtd">
<svg version="1.1" preserveAspectRatio="none" id="Layer_1" xmlns="http://www.w3.org/2000/svg" xmlns:xlink="http://www.w3.org/1999/xlink" x="0px" y="0px"
	 width="157.997px" height="157.996px" viewBox="0 0 157.997 157.996" enable-background="new 0 0 157.997 157.996"
	 xml:space="preserve">
<g>
	<path fill="#6ECCD6" d="M53.389,82.037c-5.792,2.027-11.503,4.123-17.146,6.293c-5.643,2.172-11.36,3.689-17.145,4.559H16.06
		c-4.341,0-8.105-1.152-11.286-3.473C1.587,87.104,0,83.631,0,78.998c0-4.625,1.587-8.098,4.774-10.416
		c3.181-2.314,6.945-3.473,11.286-3.473h3.039c5.785,0.867,11.502,2.387,17.145,4.557s11.354,4.273,17.146,6.295V82.037z
		 M58.598,62.938c-3.473-1.736-7.528-3.539-12.154-5.426c-4.632-1.877-8.973-4.049-13.021-6.51c-4.056-2.455-7.454-5.135-10.2-8.031
		c-2.754-2.889-4.124-6.361-4.124-10.416c0-3.473,1.37-6.58,4.124-9.332c2.747-2.748,5.859-4.125,9.332-4.125
		c3.757,0,7.162,1.377,10.2,4.125c3.039,2.752,5.711,6.225,8.03,10.416c2.312,4.199,4.483,8.539,6.511,13.021
		c2.021,4.49,3.907,8.465,5.643,11.938L58.598,62.938z M62.938,99.398c-1.736,3.473-3.622,7.529-5.643,12.154
		c-2.028,4.633-4.198,8.973-6.511,13.021c-2.319,4.057-4.992,7.453-8.03,10.201c-3.038,2.754-6.443,4.123-10.2,4.123
		c-3.473,0-6.585-1.369-9.332-4.123c-2.754-2.748-4.124-5.859-4.124-9.332c0-3.758,1.37-7.162,4.124-10.201
		c2.747-3.039,6.145-5.711,10.2-8.029c4.049-2.312,8.39-4.484,13.021-6.512c4.625-2.021,8.681-3.906,12.154-5.643L62.938,99.398z
		 M75.96,53.389c-1.736-5.785-3.764-11.502-6.077-17.145c-2.32-5.643-3.907-11.354-4.775-17.146v-3.037
		c0-4.342,1.153-8.098,3.473-11.285C70.894,1.594,74.366,0,78.999,0c4.625,0,8.098,1.594,10.417,4.775
		c2.312,3.188,3.472,6.943,3.472,11.285v3.037c-0.868,5.793-2.462,11.504-4.774,17.146c-2.32,5.643-4.341,11.359-6.077,17.145H75.96
		z M82.037,104.607c2.021,5.793,4.124,11.504,6.294,17.146s3.689,11.359,4.558,17.145v3.039c0,4.34-1.16,8.104-3.472,11.285
		c-2.32,3.188-5.792,4.773-10.417,4.773c-4.632,0-8.105-1.586-10.417-4.773c-2.319-3.182-3.473-6.945-3.473-11.285v-3.039
		c0.868-5.785,2.388-11.502,4.558-17.145c2.17-5.643,4.266-11.354,6.294-17.146H82.037z M95.059,58.598
		c1.736-3.473,3.54-7.447,5.426-11.938c1.878-4.482,4.049-8.822,6.511-13.021c2.455-4.191,5.134-7.664,8.03-10.416
		c2.889-2.748,6.361-4.125,10.417-4.125c3.472,0,6.579,1.377,9.332,4.125c2.747,2.752,4.124,5.859,4.124,9.332
		c0,4.055-1.377,7.527-4.124,10.416c-2.753,2.896-6.226,5.576-10.417,8.031c-4.198,2.461-8.539,4.633-13.021,6.51
		c-4.49,1.887-8.464,3.689-11.937,5.426L95.059,58.598z M99.399,95.059c3.473,1.736,7.447,3.621,11.937,5.643
		c4.483,2.027,8.823,4.199,13.021,6.512c4.191,2.318,7.664,4.99,10.417,8.029c2.747,3.039,4.124,6.443,4.124,10.201
		c0,3.473-1.377,6.584-4.124,9.332c-2.753,2.754-5.86,4.123-9.332,4.123c-4.056,0-7.528-1.369-10.417-4.123
		c-2.896-2.748-5.575-6.145-8.03-10.201c-2.462-4.049-4.632-8.389-6.511-13.021c-1.886-4.625-3.689-8.682-5.426-12.154
		L99.399,95.059z M104.608,75.961c5.785-2.021,11.502-4.125,17.145-6.295c5.643-2.17,11.354-3.689,17.146-4.557h3.039
		c4.34,0,8.098,1.158,11.285,3.473c3.181,2.318,4.775,5.791,4.775,10.416c0,4.633-1.594,8.105-4.775,10.418
		c-3.188,2.32-6.945,3.473-11.285,3.473h-3.039c-5.792-0.869-11.502-2.387-17.146-4.559c-5.643-2.17-11.36-4.266-17.145-6.293
		V75.961z"/>
</g>
<g id="_x3C_Slice_x3E__10_">
	<rect x="-11.428" y="-10.61" fill="none" width="180.858" height="180.857"/>
</g>
</svg>
