<?xml version="1.0" encoding="utf-8"?>
<!-- Generator: Adobe Illustrator 16.0.0, SVG Export Plug-In . SVG Version: 6.00 Build 0)  -->
<!DOCTYPE svg PUBLIC "-//W3C//DTD SVG 1.1//EN" "http://www.w3.org/Graphics/SVG/1.1/DTD/svg11.dtd">
<svg version="1.1" preserveAspectRatio="none" id="Layer_1" xmlns="http://www.w3.org/2000/svg" xmlns:xlink="http://www.w3.org/1999/xlink" x="0px" y="0px"
	 width="196px" height="108px" viewBox="0 0 196 108" enable-background="new 0 0 196 108" xml:space="preserve">
<g>
	<g>
		<g>
			<path fill="#FFFFFF" d="M25.412,29.225c0.053-3.34,3.432-7.116,7.195-7.144h4.559c3.729-0.042,6.828,2.897,6.771,6.723v16.944
				h1.701l0.002-16.944c0-4.646-3.797-8.415-8.475-8.415l-4.559,0.002c-3.75,0-6.93,2.416-8.047,5.765l-0.004,0.002
				c-1.115-3.351-4.297-5.767-8.049-5.769h-4.555c-4.682,0-8.479,3.77-8.477,8.415v16.944H5.18v-16.94
				c-0.059-3.829,3.043-6.769,6.773-6.723h4.555c3.766,0.023,7.146,3.802,7.197,7.14l0.002,6.598h1.699L25.412,29.225z"/>
			<path fill="#FFFFFF" d="M173.406,36.916c0.051,3.334,3.434,7.115,7.197,7.141h2.441c3.73,0.041,6.83-2.896,6.773-6.722V20.389
				h1.701l0.002,16.945c-0.002,4.648-3.797,8.414-8.477,8.414l-2.443,0.002c-3.75-0.002-6.93-2.416-8.047-5.77h-0.004
				c-1.115,3.354-4.299,5.77-8.047,5.77l-2.865-0.002c-4.684,0-8.477-3.766-8.477-8.413V20.389h1.703l-0.002,16.946
				c-0.055,3.825,3.045,6.763,6.775,6.722l2.863,0.001c3.766-0.026,7.146-3.808,7.199-7.142l-0.002-6.601l1.705,0.001
				L173.406,36.916z"/>
			<path fill="#FFFFFF" d="M95.703,44.058h-4.557c-3.73,0.04-6.832-2.896-6.771-6.723V4.022H82.67l0.002,33.312
				c0,4.646,3.795,8.411,8.475,8.411l4.557,0.002V44.058z"/>
			<path fill="#FFFFFF" d="M116.104,44.058h-4.557c-3.729,0.042-6.83-2.897-6.773-6.723V4.022l-1.703,0.002v33.311
				c0,4.646,3.793,8.413,8.477,8.415l4.559-0.002L116.104,44.058z"/>
			<g>
				<path fill="#FFFFFF" d="M137.256,20.389h-5.309c-4.68,0-8.477,3.767-8.477,8.419v6.567v1.96c0,4.647,3.797,8.413,8.477,8.413
					h5.307c4.682,0.002,8.479-3.766,8.479-8.413l-0.002-1.956l0.002-6.575C145.73,24.158,141.938,20.389,137.256,20.389z
					 M144.029,35.377v1.957c0.057,3.826-3.045,6.764-6.773,6.724l-5.309-0.001c-3.729,0.043-6.828-2.896-6.773-6.723v-1.955v-6.575
					c-0.057-3.825,3.045-6.765,6.773-6.719h5.309c3.729-0.046,6.828,2.894,6.773,6.719V35.377z"/>
			</g>
			<g>
				<path fill="#FFFFFF" d="M66.695,37.379c4.686-0.002,8.48-3.769,8.479-8.416l0.002-0.253c-0.002-4.646-3.795-8.413-8.48-8.413
					h-3.662h-1.547c-4.539,0-8.236,3.545-8.455,7.993l-0.023,0.001v0.421v0.251v8.372c0,4.647,3.795,8.413,8.477,8.413l1.549,0.002
					l12.141-0.002v-1.69l-12.139-0.001l-1.549,0.001c-3.842,0.056-6.791-2.997-6.773-6.679l8.32-0.002L66.695,37.379z
					 M61.484,21.986h1.549h3.662c3.857-0.059,6.814,3.021,6.775,6.724v0.253c0.041,3.703-2.918,6.783-6.775,6.725h-3.662h-8.322
					v-6.725l-0.002-0.251C54.67,25.011,57.631,21.928,61.484,21.986z"/>
			</g>
		</g>
	</g>
	<path fill="#FFFFFF" d="M8.881,100.114c-0.002-0.868-0.709-1.589-1.588-1.589s-1.59,0.721-1.586,1.587
		c-0.004,0.883,0.707,1.594,1.586,1.594C8.168,101.706,8.881,100.992,8.881,100.114z"/>
	<path fill="#FFFFFF" d="M24.334,61.336c0-0.878-0.709-1.588-1.594-1.588c-0.869-0.005-1.582,0.715-1.582,1.588
		c0,0.875,0.707,1.589,1.586,1.587C23.625,62.923,24.33,62.213,24.334,61.336z"/>
	<path fill="#FFFFFF" d="M44.65,95.271c-0.002-0.716-0.584-1.305-1.301-1.305c-0.721,0-1.301,0.589-1.299,1.305
		c-0.002,0.718,0.578,1.298,1.299,1.298C44.07,96.564,44.65,95.984,44.65,95.271z"/>
	<path fill="#FFFFFF" d="M44.936,75.875c0-0.874-0.709-1.591-1.586-1.582c-0.883,0-1.59,0.708-1.588,1.582
		c0,0.875,0.707,1.591,1.588,1.591C44.227,77.466,44.934,76.754,44.936,75.875z"/>
	<path fill="#FFFFFF" d="M50.086,100.117c0-0.871-0.707-1.592-1.586-1.59c-0.879,0.004-1.586,0.719-1.586,1.592
		c0,0.872,0.709,1.587,1.586,1.587C49.379,101.701,50.086,100.994,50.086,100.117z"/>
	<path fill="#FFFFFF" d="M65.537,95.271c-0.002-0.872-0.707-1.591-1.586-1.591c-0.873,0-1.584,0.719-1.586,1.591
		c0,0.872,0.711,1.584,1.586,1.584S65.535,96.148,65.537,95.271z"/>
	<path fill="#FFFFFF" d="M65.535,90.42c0.004-0.877-0.707-1.586-1.582-1.586c-0.879,0-1.586,0.709-1.586,1.586
		c0,0.876,0.709,1.592,1.584,1.592C64.828,92.012,65.535,91.296,65.535,90.42z"/>
	<path fill="#FFFFFF" d="M65.535,71.031c0.006-0.879-0.703-1.59-1.588-1.59c-0.869,0-1.582,0.717-1.58,1.585
		c-0.002,0.885,0.709,1.593,1.586,1.593S65.535,71.911,65.535,71.031z"/>
	<path fill="#FFFFFF" d="M96.443,100.119c0.004-0.873-0.709-1.594-1.582-1.594c-0.879,0-1.592,0.721-1.592,1.592
		c0,0.875,0.711,1.589,1.588,1.589C95.736,101.706,96.451,100.992,96.443,100.119z"/>
	<path fill="#FFFFFF" d="M106.746,71.035c0-0.883-0.711-1.594-1.588-1.594c-0.873,0-1.59,0.717-1.584,1.585
		c-0.002,0.885,0.711,1.593,1.584,1.593C106.035,72.624,106.746,71.911,106.746,71.035z"/>
	<path fill="#FFFFFF" d="M122.197,100.112c-0.004-0.866-0.711-1.581-1.588-1.587c-0.879,0-1.584,0.721-1.584,1.592
		c0,0.875,0.705,1.589,1.586,1.589C121.486,101.706,122.193,100.995,122.197,100.112z"/>
	<path fill="#FFFFFF" d="M127.348,80.727c0-0.875-0.707-1.593-1.588-1.586c-0.875,0.002-1.586,0.711-1.586,1.586
		s0.713,1.582,1.586,1.586C126.641,82.318,127.348,81.605,127.348,80.727z"/>
	<path fill="#FFFFFF" d="M142.805,75.871c0-0.87-0.717-1.578-1.59-1.578c-0.877,0-1.586,0.708-1.59,1.582
		c0,0.879,0.713,1.591,1.59,1.591S142.805,76.758,142.805,75.871z"/>
	<path fill="#FFFFFF" d="M147.953,80.731c0-0.88-0.713-1.598-1.586-1.596c-0.879,0-1.586,0.716-1.588,1.591
		c0.002,0.879,0.709,1.584,1.588,1.59C147.24,82.314,147.951,81.605,147.953,80.731z"/>
	<path fill="#FFFFFF" d="M147.951,100.117c0-0.876-0.707-1.591-1.582-1.591c-0.879,0-1.594,0.721-1.59,1.591
		c0,0.878,0.707,1.584,1.586,1.584C147.244,101.708,147.951,100.992,147.951,100.117z"/>
	<path fill="#FFFFFF" d="M8.881,75.875c0-0.869-0.709-1.591-1.588-1.582c-0.877,0-1.588,0.708-1.59,1.582
		c0,0.875,0.713,1.591,1.59,1.591S8.879,76.754,8.881,75.875z"/>
	<path fill="#FFFFFF" d="M14.029,90.42c0-0.877-0.709-1.583-1.588-1.586c-0.873,0-1.582,0.707-1.588,1.586
		c0.006,0.876,0.715,1.588,1.59,1.592C13.324,92.012,14.033,91.296,14.029,90.42z"/>
	<path fill="#FFFFFF" d="M29.48,85.575c0.004-0.877-0.705-1.593-1.588-1.593c-0.873,0.007-1.588,0.716-1.588,1.593
		c0.002,0.875,0.715,1.585,1.59,1.588C28.773,87.16,29.484,86.45,29.48,85.575z"/>
	<path fill="#FFFFFF" d="M34.635,75.873c0.002-0.872-0.709-1.58-1.588-1.586c-0.879,0.006-1.586,0.714-1.59,1.592
		c0.004,0.878,0.713,1.587,1.588,1.585C33.926,77.466,34.637,76.757,34.635,75.873z"/>
	<path fill="#FFFFFF" d="M44.934,85.578c0.004-0.879-0.707-1.589-1.584-1.596c-0.875,0-1.586,0.717-1.588,1.596
		c0,0.869,0.713,1.584,1.588,1.584C44.229,87.165,44.936,86.452,44.934,85.578z"/>
	<path fill="#FFFFFF" d="M60.387,100.12c0.002-0.874-0.711-1.595-1.586-1.59c-0.875-0.005-1.586,0.711-1.582,1.587
		c-0.006,0.878,0.703,1.589,1.586,1.584C59.674,101.706,60.391,100.992,60.387,100.12z"/>
	<path fill="#FFFFFF" d="M80.988,80.727c0.004-0.873-0.707-1.591-1.584-1.591c-0.877,0.005-1.59,0.714-1.59,1.597
		c0.004,0.873,0.713,1.583,1.586,1.58C80.281,82.318,80.992,81.605,80.988,80.727z"/>
	<path fill="#FFFFFF" d="M86.145,90.42c0-0.879-0.711-1.589-1.586-1.586c-0.881-0.003-1.59,0.709-1.588,1.586
		c-0.002,0.876,0.707,1.592,1.58,1.592C85.436,92.012,86.145,91.296,86.145,90.42z"/>
	<path fill="#FFFFFF" d="M91.293,90.42c0-0.877-0.711-1.586-1.586-1.589c-0.879,0-1.588,0.712-1.588,1.589
		c0,0.876,0.703,1.592,1.588,1.592C90.58,92.012,91.293,91.299,91.293,90.42z"/>
	<path fill="#FFFFFF" d="M91.293,71.035c0-0.877-0.711-1.587-1.586-1.594c-0.881,0-1.588,0.717-1.588,1.594
		c0,0.876,0.709,1.584,1.588,1.584C90.584,72.619,91.293,71.911,91.293,71.035z"/>
	<path fill="#FFFFFF" d="M106.746,85.574c-0.004-0.877-0.709-1.594-1.588-1.586c-0.877-0.008-1.584,0.709-1.584,1.586
		c0,0.876,0.707,1.586,1.584,1.586C106.033,87.167,106.742,86.457,106.746,85.574z"/>
	<path fill="#FFFFFF" d="M111.898,100.117c-0.002-0.876-0.713-1.592-1.592-1.592c-0.873,0.005-1.586,0.721-1.584,1.592
		c-0.002,0.878,0.709,1.589,1.582,1.589C111.182,101.706,111.895,100.995,111.898,100.117z"/>
	<path fill="#FFFFFF" d="M127.35,61.336c-0.002-0.873-0.707-1.588-1.59-1.593c-0.873,0-1.582,0.714-1.586,1.593
		c0.004,0.877,0.713,1.587,1.586,1.589C126.641,62.923,127.348,62.211,127.35,61.336z"/>
	<path fill="#FFFFFF" d="M132.502,95.271c0-0.874-0.715-1.593-1.59-1.585c-0.877-0.008-1.59,0.711-1.586,1.585
		c-0.004,0.874,0.711,1.583,1.586,1.587C131.789,96.854,132.502,96.145,132.502,95.271z"/>
	<path fill="#FFFFFF" d="M142.801,90.42c0.004-0.877-0.709-1.589-1.588-1.586c-0.875-0.003-1.586,0.709-1.584,1.586
		c0,0.876,0.707,1.592,1.582,1.59C142.092,92.01,142.805,91.299,142.801,90.42z"/>
	<path fill="#FFFFFF" d="M153.238,100.123c-0.004-0.876-0.713-1.597-1.592-1.597c-0.879,0.006-1.584,0.721-1.584,1.597
		c0,0.869,0.711,1.585,1.588,1.578C152.527,101.708,153.242,100.992,153.238,100.123z"/>
	<path fill="#FFFFFF" d="M163.443,90.42c0.002-0.877-0.711-1.589-1.588-1.586c-0.881-0.003-1.588,0.707-1.588,1.586
		s0.707,1.592,1.59,1.592C162.732,92.012,163.443,91.299,163.443,90.42z"/>
	<path fill="#FFFFFF" d="M168.596,100.117c0-0.871-0.711-1.592-1.592-1.596c-0.879,0.009-1.584,0.725-1.584,1.596
		c-0.004,0.878,0.703,1.589,1.584,1.589S168.596,100.995,168.596,100.117z"/>
	<path fill="#FFFFFF" d="M168.598,71.031c-0.008-0.873-0.715-1.583-1.594-1.591c-0.879,0-1.584,0.712-1.584,1.591
		c0,0.88,0.705,1.594,1.584,1.593C167.885,72.617,168.596,71.904,168.598,71.031z"/>
	<path fill="#FFFFFF" d="M184.045,95.271c0-0.872-0.709-1.586-1.588-1.591c-0.875,0.005-1.584,0.719-1.588,1.594
		c0,0.874,0.713,1.581,1.592,1.581C183.336,96.855,184.045,96.146,184.045,95.271z"/>
	<path fill="#FFFFFF" d="M184.045,61.336c0-0.878-0.711-1.588-1.584-1.588c-0.879-0.005-1.588,0.71-1.592,1.588
		c0.004,0.875,0.713,1.587,1.588,1.587C183.336,62.925,184.049,62.213,184.045,61.336z"/>
	<path fill="#FFFFFF" d="M189.195,95.271c-0.004-0.872-0.707-1.591-1.588-1.591c-0.877,0.005-1.584,0.719-1.584,1.597
		c0.002,0.868,0.709,1.574,1.584,1.58C188.488,96.855,189.191,96.148,189.195,95.271z"/>
	<path fill="#FFFFFF" d="M9.5,66.179c0-1.216-0.988-2.198-2.213-2.198c-1.209-0.003-2.201,0.982-2.201,2.198
		c0.002,1.222,0.988,2.21,2.209,2.205C8.51,68.386,9.498,67.4,9.5,66.179z"/>
	<path fill="#FFFFFF" d="M19.801,85.575c-0.002-1.219-0.992-2.207-2.205-2.207c-1.219,0.003-2.209,0.988-2.213,2.207
		c0.006,1.215,0.996,2.206,2.211,2.201C18.809,87.781,19.805,86.791,19.801,85.575z"/>
	<path fill="#FFFFFF" d="M45.555,61.336c0-1.217-0.988-2.202-2.203-2.205c-1.221,0-2.207,0.991-2.207,2.205
		c-0.004,1.218,0.984,2.205,2.207,2.205C44.566,63.544,45.557,62.551,45.555,61.336z"/>
	<path fill="#FFFFFF" d="M50.705,80.722c0-1.218-0.988-2.202-2.205-2.2c-1.219,0-2.203,0.988-2.203,2.204
		c0,1.217,0.984,2.204,2.205,2.212C49.717,82.938,50.705,81.947,50.705,80.722z"/>
	<path fill="#FFFFFF" d="M50.705,61.335c-0.004-1.218-0.988-2.201-2.205-2.201c-1.223,0-2.209,0.988-2.203,2.201
		c-0.006,1.219,0.98,2.209,2.203,2.209C49.717,63.541,50.705,62.547,50.705,61.335z"/>
	<path fill="#FFFFFF" d="M61.006,61.336c0-1.214-0.99-2.202-2.205-2.202c-1.219-0.009-2.197,0.984-2.205,2.202
		c0.004,1.218,0.988,2.208,2.207,2.205C60.02,63.541,61.002,62.551,61.006,61.336z"/>
	<path fill="#FFFFFF" d="M81.611,85.575c0-1.223-0.988-2.207-2.209-2.207c-1.219,0-2.205,0.988-2.203,2.207
		c-0.002,1.216,0.982,2.206,2.205,2.201C80.623,87.781,81.611,86.791,81.611,85.575z"/>
	<path fill="#FFFFFF" d="M91.912,66.179c0.002-1.216-0.99-2.201-2.205-2.201c-1.219,0.003-2.205,0.985-2.207,2.201
		c0,1.222,0.988,2.21,2.207,2.207C90.918,68.386,91.914,67.4,91.912,66.179z"/>
	<path fill="#FFFFFF" d="M112.516,80.722c-0.002-1.212-0.99-2.2-2.209-2.2c-1.213-0.002-2.199,0.982-2.203,2.204
		c0.004,1.222,0.986,2.212,2.203,2.212C111.527,82.938,112.512,81.947,112.516,80.722z"/>
	<path fill="#FFFFFF" d="M117.668,100.123c-0.002-1.219-0.992-2.216-2.209-2.216c-1.217,0.007-2.209,0.997-2.203,2.21
		c-0.002,1.221,0.986,2.207,2.203,2.204C116.674,102.321,117.666,101.335,117.668,100.123z"/>
	<path fill="#FFFFFF" d="M153.855,95.271c0-1.214-0.988-2.209-2.205-2.211c-1.221,0.002-2.205,0.997-2.207,2.214
		c0.006,1.21,0.986,2.201,2.207,2.201C152.867,97.476,153.852,96.484,153.855,95.271z"/>
	<path fill="#FFFFFF" d="M164.064,95.271c-0.004-1.214-0.992-2.209-2.209-2.211c-1.219,0.002-2.207,0.994-2.207,2.211
		c-0.002,1.214,0.986,2.204,2.207,2.204C163.072,97.476,164.064,96.484,164.064,95.271z"/>
	<path fill="#FFFFFF" d="M174.361,95.274c0.002-1.22-0.988-2.212-2.205-2.214c-1.215,0.002-2.207,0.994-2.205,2.211
		c0,1.213,0.988,2.204,2.207,2.204C173.373,97.476,174.361,96.485,174.361,95.274z"/>
	<path fill="#FFFFFF" d="M184.662,90.414c0-1.209-0.988-2.197-2.203-2.197c-1.221,0.002-2.205,0.985-2.209,2.203
		c0.004,1.219,0.99,2.204,2.207,2.21C183.676,92.624,184.664,91.638,184.662,90.414z"/>
	<path fill="#FFFFFF" d="M9.5,85.574c-0.002-1.218-0.988-2.206-2.207-2.206s-2.207,0.984-2.207,2.207
		c0,1.215,0.988,2.206,2.205,2.201C8.51,87.781,9.498,86.79,9.5,85.574z"/>
	<path fill="#FFFFFF" d="M9.5,71.032c-0.002-1.219-0.99-2.207-2.207-2.207c-1.215,0-2.207,0.988-2.207,2.207
		c0,1.215,0.986,2.2,2.207,2.2C8.51,73.232,9.5,72.247,9.5,71.032z"/>
	<path fill="#FFFFFF" d="M14.646,85.574c-0.002-1.218-0.988-2.203-2.201-2.206c-1.223,0-2.205,0.988-2.205,2.206
		c0,1.215,0.982,2.202,2.205,2.207C13.662,87.776,14.646,86.793,14.646,85.574z"/>
	<path fill="#FFFFFF" d="M14.648,75.873c-0.002-1.211-0.99-2.195-2.203-2.195c-1.223,0-2.205,0.988-2.205,2.197
		c0,1.222,0.984,2.206,2.201,2.206S14.645,77.095,14.648,75.873z"/>
	<path fill="#FFFFFF" d="M14.648,66.181c-0.002-1.214-0.988-2.202-2.203-2.206c-1.223,0.004-2.201,0.988-2.205,2.206
		c-0.002,1.22,0.982,2.205,2.205,2.203C13.662,68.384,14.646,67.404,14.648,66.181z"/>
	<path fill="#FFFFFF" d="M19.803,80.723c-0.002-1.213-0.99-2.203-2.211-2.201c-1.215,0-2.203,0.988-2.207,2.205
		c0.004,1.217,0.992,2.212,2.207,2.203C18.809,82.938,19.801,81.949,19.803,80.723z"/>
	<path fill="#FFFFFF" d="M19.801,61.336c-0.004-1.218-0.992-2.206-2.213-2.202c-1.213-0.004-2.203,0.984-2.199,2.202
		c0,1.211,0.986,2.208,2.207,2.205C18.809,63.541,19.801,62.554,19.801,61.336z"/>
	<path fill="#FFFFFF" d="M24.953,80.722c-0.006-1.212-0.99-2.2-2.209-2.2c-1.217,0-2.207,0.988-2.203,2.2
		c-0.002,1.221,0.982,2.208,2.199,2.216C23.965,82.938,24.947,81.942,24.953,80.722z"/>
	<path fill="#FFFFFF" d="M30.1,80.727c0-1.217-0.984-2.198-2.207-2.205c-1.213,0-2.203,0.982-2.203,2.201
		c-0.004,1.221,0.986,2.216,2.203,2.207C29.117,82.93,30.104,81.943,30.1,80.727z"/>
	<path fill="#FFFFFF" d="M71.303,75.875c0.002-1.211-0.982-2.201-2.199-2.199c-1.219,0-2.209,0.988-2.209,2.199
		c0,1.222,0.986,2.21,2.207,2.21C70.32,78.08,71.307,77.097,71.303,75.875z"/>
	<path fill="#FFFFFF" d="M76.455,85.575c0-1.219-0.984-2.204-2.199-2.207c-1.219,0.003-2.207,0.988-2.207,2.207
		c-0.002,1.218,0.988,2.206,2.203,2.201C75.471,87.781,76.455,86.793,76.455,85.575z"/>
	<path fill="#FFFFFF" d="M81.611,75.871c0-1.209-0.992-2.193-2.207-2.197c-1.221,0.004-2.205,0.984-2.207,2.201
		c0,1.22,0.986,2.21,2.205,2.206C80.627,78.081,81.611,77.097,81.611,75.871z"/>
	<path fill="#FFFFFF" d="M86.76,75.875c0-1.215-0.984-2.199-2.207-2.199c-1.217-0.002-2.203,0.982-2.197,2.197
		c-0.006,1.217,0.979,2.207,2.195,2.212C85.771,78.08,86.76,77.097,86.76,75.875z"/>
	<path fill="#FFFFFF" d="M86.758,71.035c0.002-1.225-0.984-2.21-2.203-2.21c-1.221-0.002-2.203,0.988-2.199,2.207
		c-0.004,1.22,0.979,2.2,2.197,2.2S86.762,72.247,86.758,71.035z"/>
	<path fill="#FFFFFF" d="M107.363,66.178c-0.002-1.215-0.988-2.2-2.205-2.2s-2.203,0.985-2.203,2.201
		c0,1.222,0.988,2.207,2.203,2.207C106.375,68.391,107.363,67.4,107.363,66.178z"/>
	<path fill="#FFFFFF" d="M112.514,95.271c0-1.214-0.986-2.209-2.207-2.211c-1.215,0.002-2.203,0.994-2.203,2.211
		c0,1.213,0.992,2.199,2.199,2.204C111.527,97.471,112.516,96.484,112.514,95.271z"/>
	<path fill="#FFFFFF" d="M112.514,90.42c0-1.215-0.988-2.197-2.205-2.205c-1.217,0-2.205,0.988-2.205,2.205
		c0.004,1.221,0.99,2.206,2.205,2.206C111.525,92.626,112.516,91.639,112.514,90.42z"/>
	<path fill="#FFFFFF" d="M112.514,75.879c0.002-1.221-0.984-2.205-2.207-2.203c-1.213-0.002-2.203,0.984-2.203,2.199
		c0,1.222,0.988,2.205,2.203,2.21C111.525,78.08,112.514,77.094,112.514,75.879z"/>
	<path fill="#FFFFFF" d="M112.514,71.032c0-1.222-0.988-2.207-2.209-2.207c-1.211,0-2.201,0.988-2.197,2.207
		c0,1.215,0.986,2.199,2.199,2.2C111.525,73.232,112.514,72.247,112.514,71.032z"/>
	<path fill="#FFFFFF" d="M117.668,95.279c0-1.219-0.99-2.221-2.207-2.219c-1.219,0.002-2.209,0.997-2.209,2.219
		c0.004,1.205,0.99,2.193,2.209,2.193C116.676,97.477,117.662,96.492,117.668,95.279z"/>
	<path fill="#FFFFFF" d="M117.668,80.723c0-1.211-0.99-2.2-2.209-2.203c-1.217,0.003-2.205,0.992-2.205,2.203
		c-0.002,1.227,0.988,2.216,2.205,2.208C116.678,82.938,117.666,81.949,117.668,80.723z"/>
	<path fill="#FFFFFF" d="M117.668,61.336c0-1.212-0.992-2.202-2.209-2.206c-1.217,0.004-2.207,0.992-2.207,2.202
		c0,1.215,0.99,2.209,2.209,2.212C116.676,63.541,117.668,62.551,117.668,61.336z"/>
	<path fill="#FFFFFF" d="M122.814,80.722c-0.002-1.212-0.988-2.2-2.209-2.197c-1.215-0.003-2.203,0.985-2.199,2.197
		c0,1.228,0.984,2.208,2.203,2.208C121.826,82.938,122.814,81.942,122.814,80.722z"/>
	<path fill="#FFFFFF" d="M127.965,100.114c0-1.213-0.982-2.209-2.207-2.203c-1.211-0.006-2.201,0.989-2.203,2.208
		c0.002,1.213,0.99,2.202,2.207,2.202C126.98,102.324,127.967,101.332,127.965,100.114z"/>
	<path fill="#FFFFFF" d="M143.418,80.722c0-1.218-0.988-2.2-2.201-2.2c-1.219,0-2.207,0.982-2.207,2.204
		c0,1.217,0.988,2.204,2.203,2.212C142.432,82.93,143.418,81.942,143.418,80.722z"/>
	<path fill="#FFFFFF" d="M143.418,71.035c0-1.222-0.984-2.21-2.203-2.21s-2.201,0.985-2.205,2.21c0,1.212,0.988,2.197,2.205,2.197
		S143.416,72.252,143.418,71.035z"/>
	<path fill="#FFFFFF" d="M148.572,85.574c-0.002-1.218-0.99-2.206-2.205-2.206c-1.223,0-2.207,0.988-2.207,2.206
		c0,1.219,0.986,2.202,2.207,2.207C147.582,87.776,148.57,86.791,148.572,85.574z"/>
	<path fill="#FFFFFF" d="M148.572,66.179c0-1.217-0.992-2.201-2.207-2.198c-1.219-0.003-2.205,0.982-2.203,2.198
		c-0.006,1.221,0.982,2.207,2.205,2.207C147.582,68.383,148.57,67.396,148.572,66.179z"/>
	<path fill="#FFFFFF" d="M164.062,66.179c0.002-1.216-0.99-2.206-2.211-2.198c-1.211-0.008-2.203,0.982-2.203,2.198
		c-0.002,1.222,0.992,2.207,2.209,2.205C163.072,68.386,164.064,67.4,164.062,66.179z"/>
	<path fill="#FFFFFF" d="M169.213,75.871c-0.002-1.209-0.994-2.193-2.209-2.197c-1.215,0.004-2.205,0.988-2.203,2.199
		c0,1.224,0.984,2.212,2.201,2.208C168.223,78.085,169.213,77.097,169.213,75.871z"/>
	<path fill="#FFFFFF" d="M169.213,61.335c-0.002-1.218-0.992-2.198-2.209-2.201c-1.217-0.004-2.203,0.988-2.203,2.201
		c0,1.219,0.984,2.206,2.203,2.209C168.223,63.541,169.211,62.551,169.213,61.335z"/>
	<path fill="#FFFFFF" d="M174.363,100.117c-0.002-1.216-0.992-2.203-2.207-2.213c-1.217,0.01-2.205,1-2.207,2.219
		c0,1.212,0.99,2.201,2.207,2.201C173.371,102.321,174.363,101.338,174.363,100.117z"/>
	<path fill="#FFFFFF" d="M174.361,80.726c0.002-1.216-0.986-2.204-2.203-2.204c-1.221,0-2.211,0.988-2.211,2.204
		c0.002,1.222,0.99,2.212,2.211,2.212C173.371,82.938,174.361,81.947,174.361,80.726z"/>
	<path fill="#FFFFFF" d="M174.361,61.336c0-1.216-0.988-2.202-2.207-2.201c-1.213-0.001-2.203,0.982-2.207,2.201
		c0.002,1.21,0.994,2.205,2.209,2.208C173.373,63.541,174.363,62.546,174.361,61.336z"/>
	<path fill="#FFFFFF" d="M179.51,100.117c0-1.217-0.982-2.212-2.201-2.209c-1.219-0.003-2.203,0.992-2.203,2.206
		c0,1.224,0.98,2.207,2.205,2.207C178.527,102.321,179.51,101.332,179.51,100.117z"/>
	<path fill="#FFFFFF" d="M179.51,80.723c0-1.213-0.982-2.201-2.201-2.201s-2.205,0.988-2.203,2.201
		c-0.004,1.227,0.984,2.216,2.205,2.207C178.525,82.938,179.51,81.943,179.51,80.723z"/>
	<path fill="#FFFFFF" d="M184.664,80.726c0.002-1.222-0.988-2.204-2.207-2.204s-2.201,0.988-2.207,2.204
		c0.006,1.217,0.99,2.212,2.209,2.212C183.676,82.93,184.662,81.947,184.664,80.726z"/>
	<path fill="#FFFFFF" d="M189.811,85.574c0-1.218-0.979-2.206-2.201-2.206c-1.217,0-2.209,0.988-2.205,2.206
		c-0.002,1.219,0.988,2.207,2.207,2.207S189.812,86.789,189.811,85.574z"/>
	<path fill="#FFFFFF" d="M14.227,95.271c0-0.987-0.795-1.783-1.781-1.788c-0.99,0.005-1.785,0.801-1.785,1.791
		c-0.004,0.98,0.797,1.783,1.785,1.781C13.432,97.056,14.23,96.255,14.227,95.271z"/>
	<path fill="#FFFFFF" d="M24.533,85.574c-0.002-0.986-0.797-1.786-1.789-1.784c-0.986-0.002-1.783,0.8-1.783,1.784
		c0,0.985,0.795,1.784,1.783,1.784C23.734,87.358,24.533,86.56,24.533,85.574z"/>
	<path fill="#FFFFFF" d="M29.68,61.336c0-0.982-0.797-1.786-1.787-1.786c-0.982,0-1.787,0.804-1.785,1.786
		c0.004,0.986,0.803,1.789,1.785,1.789C28.883,63.12,29.68,62.32,29.68,61.336z"/>
	<path fill="#FFFFFF" d="M50.285,95.271c0-0.987-0.799-1.788-1.785-1.784c-0.992-0.004-1.787,0.797-1.787,1.784
		c0,0.982,0.795,1.785,1.787,1.785C49.486,97.056,50.285,96.256,50.285,95.271z"/>
	<path fill="#FFFFFF" d="M70.887,71.035c0-0.988-0.799-1.791-1.783-1.791s-1.785,0.803-1.789,1.791c0,0.979,0.805,1.783,1.791,1.777
		C70.088,72.818,70.887,72.015,70.887,71.035z"/>
	<circle fill="#FFFFFF" cx="120.609" cy="61.335" r="1.787"/>
	<path fill="#FFFFFF" d="M132.701,61.336c-0.006-0.98-0.807-1.786-1.787-1.786c-0.986,0-1.789,0.806-1.791,1.786
		c-0.002,0.992,0.803,1.789,1.789,1.787C131.902,63.123,132.701,62.322,132.701,61.336z"/>
	<path fill="#FFFFFF" d="M143,85.574c0-0.984-0.799-1.784-1.785-1.784c-0.986-0.002-1.789,0.8-1.785,1.784
		c-0.004,0.985,0.801,1.788,1.785,1.784C142.197,87.362,143.002,86.561,143,85.574z"/>
	<path fill="#FFFFFF" d="M148.15,75.875c0.002-0.986-0.799-1.782-1.783-1.782c-0.99,0-1.787,0.796-1.787,1.782
		c-0.004,0.99,0.797,1.786,1.785,1.79C147.352,77.661,148.146,76.865,148.15,75.875z"/>
	<path fill="#FFFFFF" d="M168.791,66.179c0-0.985-0.801-1.78-1.787-1.78c-0.984,0-1.783,0.793-1.787,1.783
		c0.006,0.986,0.803,1.783,1.787,1.785C167.99,67.967,168.795,67.171,168.791,66.179z"/>
	<path fill="#FFFFFF" d="M179.094,61.336c-0.006-0.985-0.795-1.786-1.791-1.786c-0.982,0-1.777,0.801-1.773,1.786
		c-0.004,0.986,0.789,1.784,1.777,1.789C178.295,63.128,179.094,62.322,179.094,61.336z"/>
	<path fill="#FFFFFF" d="M9.08,90.42c0.004-0.988-0.801-1.784-1.789-1.785c-0.988,0-1.787,0.797-1.787,1.785
		c0.006,0.988,0.803,1.789,1.789,1.789C8.281,92.205,9.08,91.408,9.08,90.42z"/>
	<path fill="#FFFFFF" d="M14.23,71.035c0.002-0.988-0.799-1.795-1.789-1.795c-0.986,0-1.783,0.807-1.787,1.795
		c0.004,0.981,0.803,1.777,1.791,1.783C13.432,72.812,14.229,72.017,14.23,71.035z"/>
	<path fill="#FFFFFF" d="M34.836,71.035c0.002-0.988-0.801-1.795-1.795-1.795c-0.982,0-1.783,0.807-1.779,1.795
		c-0.004,0.977,0.797,1.777,1.783,1.783C34.035,72.812,34.838,72.012,34.836,71.035z"/>
	<path fill="#FFFFFF" d="M45.424,90.42c-0.002-1.144-0.928-2.073-2.072-2.073c-1.15,0-2.08,0.93-2.078,2.073
		c0,1.148,0.93,2.073,2.076,2.073S45.42,91.568,45.424,90.42z"/>
	<path fill="#FFFFFF" d="M50.283,85.574c0.002-0.984-0.797-1.786-1.783-1.784c-0.99-0.002-1.787,0.798-1.787,1.784
		s0.799,1.784,1.787,1.784S50.285,86.561,50.283,85.574z"/>
	<path fill="#FFFFFF" d="M60.59,95.271c-0.004-0.987-0.801-1.788-1.787-1.788c-0.984,0.005-1.787,0.801-1.789,1.788
		c0.002,0.983,0.801,1.786,1.787,1.784C59.787,97.058,60.59,96.255,60.59,95.271z"/>
	<path fill="#FFFFFF" d="M70.887,85.578c-0.004-0.99-0.799-1.79-1.783-1.788c-0.986-0.002-1.789,0.798-1.789,1.784
		s0.807,1.784,1.785,1.788C70.092,87.358,70.887,86.56,70.887,85.578z"/>
	<path fill="#FFFFFF" d="M76.039,80.727c0-0.985-0.797-1.791-1.785-1.791s-1.787,0.811-1.789,1.787
		c0.002,0.991,0.807,1.791,1.789,1.791C75.238,82.514,76.039,81.719,76.039,80.727z"/>
	<path fill="#FFFFFF" d="M96.643,95.271c0-0.987-0.799-1.788-1.785-1.788c-0.988,0-1.787,0.801-1.781,1.788
		c-0.006,0.986,0.797,1.782,1.781,1.786C95.844,97.058,96.643,96.253,96.643,95.271z"/>
	<path fill="#FFFFFF" d="M96.643,66.179c0-0.985-0.797-1.781-1.781-1.785c-0.988,0-1.789,0.8-1.789,1.785
		c0,0.993,0.801,1.787,1.789,1.787C95.846,67.966,96.643,67.172,96.643,66.179z"/>
	<path fill="#FFFFFF" d="M106.945,95.271c-0.002-0.987-0.801-1.788-1.787-1.788s-1.787,0.801-1.785,1.788
		c0,0.981,0.797,1.786,1.785,1.786C106.145,97.054,106.943,96.253,106.945,95.271z"/>
	<path fill="#FFFFFF" d="M106.945,80.727c-0.002-0.985-0.801-1.791-1.787-1.792c-0.984,0.001-1.785,0.807-1.785,1.798
		c0,0.981,0.799,1.781,1.785,1.784C106.145,82.514,106.943,81.714,106.945,80.727z"/>
	<path fill="#FFFFFF" d="M112.092,85.574c-0.002-0.984-0.797-1.783-1.785-1.786c-0.984,0-1.785,0.802-1.781,1.786
		c-0.002,0.986,0.797,1.786,1.781,1.786S112.092,86.56,112.092,85.574z"/>
	<path fill="#FFFFFF" d="M112.094,66.179c0-0.985-0.799-1.78-1.785-1.782c-0.984,0-1.787,0.801-1.787,1.782
		c0.002,0.992,0.803,1.788,1.787,1.786C111.291,67.967,112.096,67.171,112.094,66.179z"/>
	<path fill="#FFFFFF" d="M117.246,75.875c0-0.98-0.801-1.782-1.787-1.777c-0.986-0.005-1.785,0.791-1.785,1.777
		c0.002,0.99,0.801,1.786,1.785,1.786C116.445,77.665,117.248,76.861,117.246,75.875z"/>
	<path fill="#FFFFFF" d="M122.393,95.271c0.006-0.991-0.795-1.793-1.785-1.788c-0.982,0-1.783,0.801-1.783,1.791
		c0,0.979,0.801,1.783,1.783,1.783C121.598,97.058,122.393,96.253,122.393,95.271z"/>
	<path fill="#FFFFFF" d="M132.699,75.873c0.002-0.983-0.797-1.78-1.783-1.78c-0.99,0-1.793,0.796-1.793,1.782
		c0.004,0.986,0.803,1.786,1.793,1.786C131.902,77.661,132.701,76.859,132.699,75.873z"/>
	<path fill="#FFFFFF" d="M143,66.182c0-0.985-0.799-1.785-1.785-1.783c-0.986-0.002-1.789,0.793-1.785,1.78
		c-0.006,0.995,0.799,1.788,1.785,1.786C142.197,67.975,143,67.174,143,66.182z"/>
	<path fill="#FFFFFF" d="M148.15,95.271c-0.006-0.987-0.793-1.788-1.783-1.782c-0.992,0-1.787,0.795-1.783,1.782
		c-0.004,0.982,0.793,1.787,1.783,1.783C147.352,97.054,148.146,96.256,148.15,95.271z"/>
	<path fill="#FFFFFF" d="M168.793,95.271c0-0.987-0.801-1.788-1.785-1.788c-0.99,0-1.787,0.801-1.787,1.788
		c-0.004,0.986,0.797,1.786,1.783,1.784C167.992,97.056,168.793,96.255,168.793,95.271z"/>
	<path fill="#FFFFFF" d="M168.793,80.723c0-0.979-0.801-1.781-1.789-1.788c-0.988,0.007-1.787,0.807-1.783,1.792
		c0,0.987,0.797,1.787,1.781,1.79C167.99,82.517,168.793,81.719,168.793,80.723z"/>
	<path fill="#FFFFFF" d="M179.088,75.873c0.006-0.983-0.793-1.78-1.783-1.78c-0.984,0-1.779,0.797-1.779,1.782
		c0,0.984,0.795,1.79,1.785,1.786C178.295,77.661,179.09,76.865,179.088,75.873z"/>
	<path fill="#FFFFFF" d="M184.242,100.119c-0.002-0.99-0.799-1.79-1.781-1.79c-0.992,0-1.791,0.8-1.787,1.79
		c0,0.98,0.797,1.783,1.783,1.783S184.242,101.103,184.242,100.119z"/>
	<path fill="#FFFFFF" d="M184.242,85.574c0.002-0.984-0.797-1.786-1.783-1.784c-0.988-0.002-1.787,0.798-1.789,1.784
		c0.002,0.985,0.797,1.784,1.789,1.784C183.443,87.358,184.244,86.56,184.242,85.574z"/>
	<path fill="#FFFFFF" d="M189.395,90.418c0-0.983-0.799-1.776-1.783-1.783c-0.988,0-1.791,0.8-1.791,1.785
		c0.006,0.988,0.803,1.79,1.789,1.785C188.6,92.205,189.395,91.41,189.395,90.418z"/>
	<path fill="#FFFFFF" d="M189.395,80.723c0-0.981-0.803-1.779-1.787-1.787c-0.984,0-1.783,0.806-1.783,1.791
		c-0.004,0.992,0.801,1.787,1.783,1.787C188.6,82.512,189.395,81.719,189.395,80.723z"/>
	<path fill="#FFFFFF" d="M14.428,61.359c0.004-1.098-0.889-1.982-1.982-1.986c-1.1,0.004-1.984,0.895-1.98,1.982
		c0,1.101,0.883,1.99,1.98,1.99C13.539,63.346,14.426,62.456,14.428,61.359z"/>
	<path fill="#FFFFFF" d="M35.031,80.752c0-1.101-0.885-1.989-1.988-1.989c-1.096,0.003-1.98,0.892-1.984,1.989
		c0.004,1.098,0.893,1.982,1.984,1.982C34.146,82.734,35.031,81.85,35.031,80.752z"/>
	<path fill="#FFFFFF" d="M50.482,90.445c0.002-1.095-0.887-1.985-1.982-1.985c-1.1,0-1.982,0.891-1.982,1.991
		c0.002,1.092,0.885,1.979,1.982,1.982C49.592,92.434,50.482,91.543,50.482,90.445z"/>
	<path fill="#FFFFFF" d="M50.484,66.201c0-1.096-0.889-1.98-1.984-1.98c-1.098,0-1.982,0.895-1.98,1.98
		c0,1.103,0.881,1.995,1.984,1.986C49.592,68.19,50.484,67.307,50.484,66.201z"/>
	<path fill="#FFFFFF" d="M86.541,85.596c0-1.094-0.889-1.98-1.988-1.983c-1.096,0.003-1.979,0.89-1.979,1.987
		c-0.004,1.097,0.883,1.986,1.977,1.986C85.652,87.586,86.537,86.695,86.541,85.596z"/>
	<path fill="#FFFFFF" d="M107.141,90.446c0.002-1.099-0.887-1.985-1.977-1.99c-1.102,0.011-1.99,0.892-1.99,1.99
		c-0.002,1.098,0.887,1.989,1.98,1.984C106.258,92.431,107.143,91.539,107.141,90.446z"/>
	<path fill="#FFFFFF" d="M143.201,61.355c0-1.088-0.893-1.981-1.984-1.984c-1.098,0.006-1.986,0.896-1.988,1.988
		c0.002,1.097,0.891,1.989,1.986,1.986C142.309,63.349,143.201,62.456,143.201,61.355z"/>
	<path fill="#FFFFFF" d="M163.84,71.053c0.002-1.095-0.887-1.982-1.988-1.979c-1.094-0.004-1.982,0.884-1.982,1.979
		c0,1.092,0.893,1.984,1.988,1.984S163.838,72.147,163.84,71.053z"/>
	<path fill="#FFFFFF" d="M174.139,75.902c0.002-1.096-0.887-1.985-1.986-1.985c-1.092,0.004-1.984,0.89-1.979,1.982
		c-0.004,1.102,0.887,1.985,1.98,1.988C173.252,77.888,174.139,77.003,174.139,75.902z"/>
	<path fill="#FFFFFF" d="M179.293,95.294c-0.004-1.093-0.891-1.987-1.984-1.981c-1.098,0.004-1.984,0.884-1.98,1.981
		c-0.004,1.093,0.883,1.989,1.979,1.983C178.406,97.277,179.289,96.387,179.293,95.294z"/>
	<path fill="#FFFFFF" d="M9.275,95.296c0-1.1-0.887-1.983-1.98-1.989c-1.094,0-1.984,0.89-1.988,1.989
		c0,1.091,0.891,1.987,1.984,1.987C8.389,97.283,9.275,96.386,9.275,95.296z"/>
	<path fill="#FFFFFF" d="M9.275,80.752c0-1.098-0.887-1.988-1.982-1.988c-1.096,0.002-1.986,0.891-1.986,1.985
		c0,1.101,0.891,1.982,1.986,1.982C8.389,82.738,9.277,81.85,9.275,80.752z"/>
	<path fill="#FFFFFF" d="M35.031,66.206c0-1.098-0.885-1.982-1.986-1.982c-1.098,0-1.982,0.885-1.982,1.982s0.889,1.984,1.98,1.981
		C34.145,68.19,35.031,67.304,35.031,66.206z"/>
	<path fill="#FFFFFF" d="M45.332,80.749c0.004-1.095-0.885-1.983-1.98-1.985c-1.102,0-1.988,0.896-1.984,1.985
		c-0.004,1.101,0.883,1.989,1.982,1.982C44.447,82.731,45.336,81.85,45.332,80.749z"/>
	<path fill="#FFFFFF" d="M60.783,66.206c0.002-1.098-0.887-1.982-1.984-1.982c-1.094-0.005-1.979,0.887-1.979,1.982
		c0,1.102,0.885,1.981,1.982,1.983C59.896,68.189,60.783,67.301,60.783,66.206z"/>
	<path fill="#FFFFFF" d="M71.084,90.449c-0.002-1.099-0.889-1.984-1.98-1.984c-1.1,0-1.986,0.886-1.99,1.98
		c0.004,1.1,0.895,1.988,1.988,1.985C70.195,92.431,71.082,91.543,71.084,90.449z"/>
	<path fill="#FFFFFF" d="M76.236,75.899c-0.002-1.093-0.885-1.982-1.979-1.982c-1.1,0-1.994,0.89-1.986,1.982
		c-0.006,1.104,0.885,1.981,1.982,1.988C75.352,77.885,76.232,77.003,76.236,75.899z"/>
	<path fill="#FFFFFF" d="M96.842,61.355c0-1.088-0.889-1.979-1.98-1.979c-1.105,0-1.986,0.887-1.986,1.979
		c0,1.097,0.885,1.991,1.982,1.991C95.953,63.347,96.838,62.459,96.842,61.355z"/>
	<path fill="#FFFFFF" d="M107.143,75.899c0-1.09-0.891-1.979-1.984-1.981c-1.092,0-1.982,0.889-1.984,1.981
		c0.002,1.102,0.887,1.985,1.984,1.985C106.258,77.888,107.143,77.003,107.143,75.899z"/>
	<path fill="#FFFFFF" d="M112.295,61.355c-0.006-1.088-0.889-1.979-1.988-1.984c-1.09,0.003-1.982,0.896-1.982,1.988
		c0,1.097,0.893,1.986,1.982,1.986C111.402,63.349,112.297,62.456,112.295,61.355z"/>
	<path fill="#FFFFFF" d="M122.594,75.899c0-1.09-0.887-1.981-1.986-1.981c-1.094-0.003-1.982,0.892-1.984,1.981
		c0.002,1.104,0.887,1.985,1.984,1.985C121.707,77.885,122.594,77.003,122.594,75.899z"/>
	<path fill="#FFFFFF" d="M127.748,95.294c0-1.098-0.887-1.987-1.988-1.985c-1.096,0.004-1.98,0.888-1.98,1.985
		c0,1.093,0.885,1.988,1.977,1.988C126.855,97.282,127.748,96.387,127.748,95.294z"/>
	<path fill="#FFFFFF" d="M127.742,75.902c0.006-1.101-0.881-1.984-1.984-1.984c-1.092,0-1.977,0.892-1.979,1.981
		c-0.004,1.102,0.887,1.985,1.982,1.985C126.861,77.885,127.748,76.998,127.742,75.902z"/>
	<path fill="#FFFFFF" d="M143.197,95.301c0.004-1.104-0.889-1.984-1.982-1.994c-1.098,0.01-1.984,0.89-1.984,1.989
		c-0.002,1.096,0.889,1.981,1.984,1.987C142.309,97.277,143.205,96.386,143.197,95.301z"/>
	<path fill="#FFFFFF" d="M148.352,71.055c0.002-1.097-0.893-1.984-1.984-1.984c-1.098,0-1.986,0.888-1.986,1.984
		c0.004,1.093,0.889,1.982,1.986,1.982C147.461,73.036,148.35,72.153,148.352,71.055z"/>
	<path fill="#FFFFFF" d="M148.35,90.449c0.002-1.102-0.883-1.988-1.984-1.988c-1.098,0-1.984,0.89-1.984,1.985
		c0.004,1.093,0.889,1.987,1.986,1.984C147.467,92.431,148.35,91.543,148.35,90.449z"/>
	<path fill="#FFFFFF" d="M163.84,75.899c0.002-1.093-0.889-1.981-1.984-1.981c-1.098,0-1.986,0.892-1.984,1.984
		c-0.002,1.099,0.887,1.982,1.984,1.982C162.951,77.881,163.84,77.003,163.84,75.899z"/>
	<path fill="#FFFFFF" d="M184.443,75.899c0.004-1.09-0.889-1.981-1.982-1.984c-1.104,0.003-1.986,0.892-1.988,1.984
		c0.002,1.102,0.887,1.985,1.984,1.988C183.551,77.885,184.441,77.003,184.443,75.899z"/>
	<path fill="#FFFFFF" d="M189.59,66.206c0-1.098-0.883-1.982-1.982-1.979c-1.096-0.008-1.98,0.882-1.98,1.979
		s0.885,1.981,1.984,1.981C188.707,68.188,189.596,67.304,189.59,66.206z"/>
</g>
</svg>
